<svg version="1.1" xmlns="http://www.w3.org/2000/svg" viewBox="0 0 1658.0358137536516 1861.8283734627673" width="3316.071627507303" height="3723.6567469255347">
  <!-- svg-source:excalidraw -->
  
  <defs>
    <style class="style-fonts">
      @font-face {
        font-family: "Virgil";
        src: url("https://excalidraw.com/Virgil.woff2");
      }
      @font-face {
        font-family: "Cascadia";
        src: url("https://excalidraw.com/Cascadia.woff2");
      }
      @font-face {
        font-family: "Assistant";
        src: url("https://excalidraw.com/Assistant-Regular.woff2");
      }
    </style>
    
  </defs>
  <rect x="0" y="0" width="1658.0358137536516" height="1861.8283734627673" fill="#ffffff"></rect><g stroke-linecap="round" transform="translate(165.42720639558115 152.27378652333095) rotate(0 17.127273559570312 24.5)"><path d="M17.53 0.21 C21.02 0.03, 25.95 2.88, 28.73 6.35 C31.51 9.81, 33.75 15.86, 34.23 21 C34.7 26.14, 33.56 32.76, 31.56 37.19 C29.56 41.63, 25.79 45.89, 22.24 47.6 C18.7 49.32, 13.62 49.52, 10.3 47.49 C6.98 45.45, 4.03 40.08, 2.31 35.38 C0.59 30.69, -0.69 24.42, -0.03 19.32 C0.62 14.22, 3.09 7.91, 6.25 4.78 C9.42 1.65, 16.83 1.18, 18.95 0.52 C21.08 -0.14, 19.03 0.52, 19 0.82 M16.85 0.21 C20.3 -0.42, 24.43 1.64, 27.35 4.86 C30.28 8.07, 33.64 14.27, 34.4 19.49 C35.17 24.71, 33.6 31.66, 31.96 36.17 C30.32 40.68, 27.79 44.72, 24.56 46.57 C21.33 48.42, 16.18 48.71, 12.6 47.25 C9.03 45.79, 5.17 42.15, 3.12 37.82 C1.07 33.5, -0.11 26.51, 0.29 21.3 C0.7 16.08, 2.92 10.03, 5.55 6.52 C8.17 3.02, 14.17 1.15, 16.03 0.27 C17.88 -0.61, 16.74 0.86, 16.69 1.24" stroke="none" stroke-width="0" fill="#ffc9c9"></path><path d="M13.03 0.44 C16.45 -1.1, 21.82 -0.14, 25.07 2.25 C28.32 4.65, 31.07 9.99, 32.53 14.8 C33.99 19.61, 34.84 26.08, 33.82 31.11 C32.8 36.13, 29.53 41.98, 26.41 44.96 C23.28 47.94, 18.72 49.48, 15.07 48.99 C11.42 48.5, 7.04 45.79, 4.52 42.02 C2 38.26, 0.22 31.77, -0.05 26.4 C-0.32 21.02, 0.61 14, 2.9 9.77 C5.18 5.54, 11.78 2.43, 13.67 1.02 C15.57 -0.38, 14.3 0.99, 14.26 1.36 M12.75 0.53 C16.2 -0.93, 22.04 -0.49, 25.31 1.91 C28.58 4.31, 30.87 9.97, 32.36 14.91 C33.86 19.85, 35.3 26.59, 34.27 31.54 C33.25 36.49, 29.37 41.78, 26.23 44.59 C23.1 47.4, 18.95 48.84, 15.48 48.41 C12.01 47.98, 8.04 45.82, 5.4 42.01 C2.76 38.2, -0.03 30.99, -0.36 25.55 C-0.69 20.1, 1.25 13.57, 3.41 9.34 C5.57 5.11, 11.07 1.56, 12.58 0.14 C14.09 -1.28, 12.39 0.43, 12.48 0.82" stroke="#1e1e1e" stroke-width="2" fill="none"></path></g><g transform="translate(178.09967453731724 166.3032237748538) rotate(0 4.343994140625 10)"><text x="4.343994140625" y="14.016" font-family="Virgil, Segoe UI Emoji" font-size="16px" fill="#1e1e1e" text-anchor="middle" style="white-space: pre;" direction="ltr" dominant-baseline="alphabetic">s</text></g><g stroke-linecap="round" transform="translate(137.4723113760499 202.9093913817294) rotate(0 16.69256591796875 21)"><path d="M20.76 0.7 C24.06 1.59, 28.11 5.22, 30.28 8.91 C32.46 12.6, 34.06 18.35, 33.81 22.85 C33.56 27.36, 31.35 32.78, 28.76 35.95 C26.18 39.13, 21.86 41.57, 18.3 41.92 C14.73 42.27, 10.32 40.54, 7.38 38.05 C4.44 35.56, 1.7 31.26, 0.66 26.99 C-0.38 22.72, -0.38 16.6, 1.13 12.43 C2.64 8.25, 6.39 3.94, 9.72 1.95 C13.06 -0.04, 19.2 0.58, 21.16 0.47 C23.11 0.37, 21.49 0.97, 21.48 1.29 M21.18 0.65 C24.47 1.2, 27.83 4.48, 29.79 8.01 C31.74 11.54, 32.94 17.29, 32.89 21.84 C32.85 26.39, 31.96 31.87, 29.52 35.29 C27.09 38.7, 21.95 41.65, 18.27 42.32 C14.58 42.99, 10.23 41.94, 7.39 39.31 C4.55 36.69, 2.23 31.07, 1.23 26.57 C0.22 22.06, 0.12 16.27, 1.36 12.28 C2.61 8.3, 5.64 4.63, 8.71 2.66 C11.78 0.68, 17.76 0.66, 19.79 0.41 C21.81 0.17, 20.81 0.95, 20.84 1.21" stroke="none" stroke-width="0" fill="#ffc9c9"></path><path d="M16.9 -0.23 C20.43 -0.62, 25.04 1.37, 27.68 4.31 C30.32 7.25, 32.06 12.88, 32.74 17.41 C33.42 21.93, 33.46 27.59, 31.75 31.46 C30.04 35.33, 25.87 38.97, 22.48 40.61 C19.09 42.24, 14.82 42.77, 11.41 41.26 C8 39.75, 3.86 35.46, 1.99 31.55 C0.13 27.64, -0.41 22.23, 0.22 17.78 C0.85 13.34, 2.91 7.89, 5.78 4.85 C8.65 1.82, 15.35 0.38, 17.44 -0.43 C19.53 -1.24, 18.33 -0.43, 18.31 0.02 M12.94 0.67 C16.42 -0.38, 22.06 0.81, 25.33 2.91 C28.59 5.01, 31.37 9.18, 32.52 13.26 C33.67 17.33, 33.41 23.09, 32.23 27.36 C31.05 31.63, 28.47 36.56, 25.43 38.88 C22.4 41.2, 17.53 41.94, 13.99 41.28 C10.46 40.62, 6.47 38.17, 4.22 34.92 C1.98 31.67, 0.6 26.42, 0.54 21.78 C0.48 17.14, 1.81 10.54, 3.87 7.09 C5.93 3.63, 11.17 2.12, 12.89 1.04 C14.61 -0.04, 14.07 0.33, 14.21 0.61" stroke="#1e1e1e" stroke-width="2" fill="none"></path></g><g transform="translate(150.01745659739453 214.0601489768119) rotate(0 4.343994140625 10)"><text x="4.343994140625" y="14.016" font-family="Virgil, Segoe UI Emoji" font-size="16px" fill="#1e1e1e" text-anchor="middle" style="white-space: pre;" direction="ltr" dominant-baseline="alphabetic">s</text></g><g stroke-linecap="round" transform="translate(204.72854975234725 199.75207326649502) rotate(0 20.550968289017362 21.428735903176687)"><path d="M24.75 0.06 C28.93 0.7, 34.04 4.67, 36.71 8.33 C39.39 11.99, 40.88 17.5, 40.8 22.03 C40.72 26.57, 39.16 32.14, 36.25 35.52 C33.35 38.9, 27.84 41.66, 23.38 42.32 C18.92 42.99, 13.18 41.96, 9.5 39.52 C5.82 37.08, 2.56 31.99, 1.3 27.66 C0.03 23.33, 0.28 17.64, 1.93 13.54 C3.59 9.43, 7.23 5.18, 11.23 3.02 C15.22 0.86, 23.36 0.88, 25.91 0.56 C28.46 0.25, 26.65 0.7, 26.52 1.14 M20.09 0.7 C24.43 0.2, 30.62 1.57, 34.07 4.27 C37.52 6.98, 40.11 12.27, 40.78 16.94 C41.45 21.6, 40.34 28.21, 38.07 32.28 C35.8 36.35, 31.13 39.75, 27.15 41.35 C23.18 42.96, 18.29 43.52, 14.22 41.91 C10.16 40.31, 5.12 35.76, 2.74 31.73 C0.36 27.7, -0.86 22.16, -0.05 17.71 C0.76 13.26, 4.18 7.97, 7.62 5.04 C11.05 2.11, 18.5 0.88, 20.56 0.14 C22.63 -0.59, 20.11 0.23, 20.02 0.64" stroke="none" stroke-width="0" fill="#b2f2bb"></path><path d="M22.85 0.54 C27 0.69, 31.9 3.06, 34.93 6.3 C37.97 9.55, 40.67 15.45, 41.05 20.02 C41.43 24.59, 39.74 30.11, 37.2 33.73 C34.66 37.35, 30 40.68, 25.79 41.76 C21.58 42.85, 15.91 42.16, 11.94 40.25 C7.96 38.35, 3.87 34.5, 1.94 30.33 C0.02 26.16, -0.79 19.72, 0.39 15.22 C1.58 10.72, 5.06 5.75, 9.07 3.34 C13.07 0.92, 21.61 1.05, 24.41 0.71 C27.21 0.37, 25.99 1.02, 25.87 1.29 M17.3 -0.21 C21.39 -1.11, 27.44 0.71, 31.31 3.23 C35.19 5.75, 39.11 10.7, 40.54 14.91 C41.97 19.12, 41.65 24.14, 39.87 28.46 C38.09 32.79, 33.63 38.55, 29.85 40.85 C26.08 43.15, 21.45 43.22, 17.21 42.26 C12.98 41.31, 7.42 38.63, 4.46 35.13 C1.49 31.64, -0.79 25.83, -0.57 21.31 C-0.34 16.78, 2.93 11.48, 5.81 7.99 C8.68 4.5, 14.72 1.56, 16.69 0.37 C18.65 -0.82, 17.36 0.4, 17.6 0.85" stroke="#1e1e1e" stroke-width="2" fill="none"></path></g><g transform="translate(219.0637908963406 211.02840470027985) rotate(0 6.183998107910156 10)"><text x="6.183998107910156" y="14.016" font-family="Virgil, Segoe UI Emoji" font-size="16px" fill="#1e1e1e" text-anchor="middle" style="white-space: pre;" direction="ltr" dominant-baseline="alphabetic">c1</text></g><g stroke-linecap="round" transform="translate(101.2628387197999 246.55102346180752) rotate(0 22.467193603515625 21)"><path d="M19.95 0 C24.53 -0.72, 31.24 0.62, 35.34 3.17 C39.43 5.73, 43.19 10.85, 44.53 15.33 C45.86 19.81, 45.37 26, 43.34 30.06 C41.32 34.13, 36.79 37.9, 32.36 39.73 C27.93 41.56, 21.47 42.05, 16.76 41.05 C12.05 40.05, 6.88 37.37, 4.1 33.73 C1.31 30.08, -0.39 23.77, 0.03 19.19 C0.46 14.61, 3.03 9.38, 6.65 6.24 C10.28 3.11, 19.22 1.33, 21.8 0.36 C24.37 -0.61, 22.24 0.19, 22.12 0.44 M25.68 0.42 C30.34 0.59, 35.62 2.84, 38.77 6.05 C41.92 9.25, 44.23 15.08, 44.58 19.66 C44.94 24.23, 43.67 29.84, 40.87 33.5 C38.07 37.16, 32.59 40.54, 27.78 41.61 C22.96 42.67, 16.36 41.91, 11.97 39.92 C7.59 37.92, 3.24 33.71, 1.47 29.65 C-0.31 25.58, -0.18 19.87, 1.34 15.55 C2.86 11.23, 6.56 6.29, 10.59 3.73 C14.63 1.17, 23.02 0.67, 25.55 0.18 C28.09 -0.32, 25.84 0.45, 25.79 0.76" stroke="none" stroke-width="0" fill="#b2f2bb"></path><path d="M20.13 -0.32 C24.62 -1, 30.99 1.07, 34.9 3.55 C38.81 6.02, 42.2 10.33, 43.59 14.55 C44.97 18.78, 44.98 24.64, 43.18 28.89 C41.39 33.15, 37.07 37.99, 32.8 40.11 C28.52 42.23, 22.28 42.73, 17.54 41.61 C12.8 40.5, 7.32 37.04, 4.35 33.43 C1.38 29.81, -0.55 24.41, -0.27 19.93 C0 15.45, 2.55 9.87, 6 6.57 C9.46 3.27, 17.8 1.11, 20.43 0.14 C23.06 -0.82, 21.67 0.44, 21.79 0.79 M17.84 0.4 C22.31 -0.93, 28.27 0.38, 32.38 2.47 C36.49 4.56, 40.43 8.73, 42.49 12.92 C44.55 17.11, 46.13 23.33, 44.74 27.61 C43.36 31.89, 38.29 36.21, 34.18 38.62 C30.07 41.02, 24.68 42.45, 20.09 42.04 C15.5 41.64, 9.88 39.45, 6.65 36.17 C3.42 32.89, 1 27.01, 0.73 22.35 C0.45 17.7, 2.25 11.87, 5.01 8.24 C7.77 4.61, 15.31 1.76, 17.26 0.55 C19.21 -0.66, 16.59 0.72, 16.7 0.99" stroke="#1e1e1e" stroke-width="2" fill="none"></path></g><g transform="translate(114.13132938619879 257.70178105689) rotate(0 9.711997985839844 10)"><text x="9.711997985839844" y="14.016" font-family="Virgil, Segoe UI Emoji" font-size="16px" fill="#1e1e1e" text-anchor="middle" style="white-space: pre;" direction="ltr" dominant-baseline="alphabetic">c2</text></g><g stroke-linecap="round" transform="translate(249.5582488760499 252.74892995594814) rotate(0 21.018798828125 21)"><path d="M20.32 0.12 C24.59 -0.23, 30.45 2.03, 33.99 4.68 C37.54 7.34, 40.64 11.82, 41.56 16.07 C42.49 20.32, 41.61 26.06, 39.53 30.17 C37.46 34.28, 33.21 38.96, 29.11 40.72 C25 42.49, 19.13 42.19, 14.9 40.79 C10.67 39.39, 6.12 36, 3.74 32.34 C1.36 28.68, 0.2 23.27, 0.62 18.83 C1.04 14.39, 3.02 8.88, 6.26 5.7 C9.5 2.52, 17.57 0.69, 20.06 -0.26 C22.54 -1.21, 21.13 -0.47, 21.18 -0.02 M22.52 -0.18 C26.91 0.01, 33.06 2.75, 36.34 6 C39.63 9.25, 41.95 14.76, 42.22 19.3 C42.49 23.85, 40.63 29.51, 37.96 33.25 C35.28 36.98, 30.39 40.48, 26.15 41.73 C21.91 42.98, 16.47 42.65, 12.5 40.73 C8.53 38.81, 4.23 34.42, 2.33 30.23 C0.42 26.04, -0.16 19.96, 1.05 15.59 C2.26 11.22, 5.9 6.61, 9.59 3.99 C13.27 1.38, 21.06 0.56, 23.15 -0.1 C25.24 -0.76, 22.11 -0.39, 22.13 0.02" stroke="none" stroke-width="0" fill="#b2f2bb"></path><path d="M15.78 0.2 C19.86 -1.13, 26.38 -0.28, 30.5 1.86 C34.62 4, 38.69 8.82, 40.5 13.04 C42.31 17.26, 42.69 22.95, 41.35 27.18 C40 31.4, 36.29 35.91, 32.44 38.37 C28.6 40.84, 22.75 42.45, 18.28 41.95 C13.82 41.44, 8.75 38.62, 5.66 35.35 C2.57 32.08, -0.04 26.73, -0.27 22.31 C-0.51 17.89, 1.34 12.46, 4.24 8.83 C7.14 5.19, 14.98 1.94, 17.13 0.52 C19.29 -0.9, 17.08 -0.1, 17.18 0.29 M19.13 0.36 C23.52 -0.11, 30.62 2.13, 34.22 4.77 C37.82 7.41, 39.77 11.89, 40.73 16.19 C41.7 20.48, 41.79 26.39, 39.98 30.51 C38.18 34.64, 33.93 39.16, 29.89 40.94 C25.85 42.72, 20.06 42.62, 15.76 41.19 C11.47 39.75, 6.73 36.09, 4.13 32.33 C1.54 28.57, -0.1 23.04, 0.2 18.62 C0.5 14.2, 2.64 8.96, 5.92 5.79 C9.21 2.62, 17.62 0.39, 19.9 -0.4 C22.18 -1.19, 19.65 0.65, 19.59 1.05" stroke="#1e1e1e" stroke-width="2" fill="none"></path></g><g transform="translate(261.2505156332048 263.89968755103064) rotate(0 9.463996887207031 10)"><text x="9.463996887207031" y="14.016" font-family="Virgil, Segoe UI Emoji" font-size="16px" fill="#1e1e1e" text-anchor="middle" style="white-space: pre;" direction="ltr" dominant-baseline="alphabetic">c3</text></g><g stroke-linecap="round" transform="translate(178.8707705686105 250.00686452626064) rotate(0 16.69256591796875 21)"><path d="M17.49 -0.14 C20.79 -0.36, 25.13 2.06, 27.73 5.2 C30.32 8.33, 32.57 14.2, 33.07 18.66 C33.57 23.12, 32.59 28.26, 30.75 31.97 C28.91 35.67, 25.37 39.42, 22.04 40.88 C18.71 42.35, 14.2 42.43, 10.78 40.74 C7.36 39.05, 3.3 34.82, 1.51 30.73 C-0.28 26.64, -0.83 20.67, 0.05 16.2 C0.93 11.73, 3.79 6.54, 6.77 3.91 C9.75 1.27, 15.95 0.95, 17.95 0.38 C19.95 -0.19, 18.87 0.21, 18.79 0.47 M15.54 0.22 C18.79 -0.35, 23.19 1.39, 26.02 4.04 C28.84 6.68, 31.49 11.63, 32.51 16.06 C33.53 20.49, 33.57 26.56, 32.16 30.62 C30.75 34.67, 27.31 38.62, 24.06 40.4 C20.81 42.18, 16.08 42.49, 12.67 41.29 C9.26 40.09, 5.67 36.92, 3.63 33.19 C1.58 29.47, 0.27 23.53, 0.37 18.94 C0.48 14.35, 1.65 8.75, 4.24 5.63 C6.82 2.52, 14 1.09, 15.88 0.24 C17.75 -0.61, 15.59 0.3, 15.47 0.55" stroke="none" stroke-width="0" fill="#ffc9c9"></path><path d="M13.84 0.72 C17.17 -0.23, 22.05 0.76, 25.11 2.89 C28.17 5.02, 31.03 9.29, 32.2 13.49 C33.36 17.69, 33.3 23.85, 32.12 28.11 C30.93 32.37, 28.17 36.75, 25.08 39.03 C22 41.31, 17.12 42.47, 13.62 41.79 C10.12 41.12, 6.31 38.41, 4.08 34.99 C1.85 31.57, 0.39 25.91, 0.26 21.28 C0.14 16.65, 0.98 10.66, 3.34 7.23 C5.71 3.8, 12.64 1.81, 14.47 0.7 C16.31 -0.41, 14.34 0.35, 14.34 0.56 M17.76 0.24 C21.07 0.35, 26.19 3.28, 28.87 6.62 C31.54 9.96, 33.47 15.81, 33.81 20.28 C34.14 24.75, 32.94 29.96, 30.86 33.43 C28.77 36.89, 24.89 40.03, 21.31 41.1 C17.74 42.16, 12.82 41.75, 9.41 39.82 C5.99 37.88, 2.25 33.68, 0.83 29.5 C-0.6 25.31, -0.21 18.95, 0.86 14.72 C1.93 10.5, 4.37 6.61, 7.25 4.16 C10.14 1.7, 16.38 0.66, 18.17 0 C19.95 -0.65, 17.97 -0.2, 17.97 0.23" stroke="#1e1e1e" stroke-width="2" fill="none"></path></g><g transform="translate(191.41591578995514 261.15762212134314) rotate(0 4.343994140625 10)"><text x="4.343994140625" y="14.016" font-family="Virgil, Segoe UI Emoji" font-size="16px" fill="#1e1e1e" text-anchor="middle" style="white-space: pre;" direction="ltr" dominant-baseline="alphabetic">s</text></g><g stroke-linecap="round"><g transform="translate(172.1413787588624 186.29731557606533) rotate(0 -6.482696533203125 8.919235229492188)"><path d="M0.47 -0.06 C-1.64 2.98, -10.79 14.79, -12.99 17.74 M0.04 -0.56 C-2.11 2.6, -11.26 15.27, -13.44 18.38" stroke="#1e1e1e" stroke-width="2" fill="none"></path></g></g><mask></mask><g stroke-linecap="round"><g transform="translate(140.09245908112803 232.48872182606533) rotate(0 -5.01734320218074 6.727175818010409)"><path d="M-0.36 -0.06 C-1.87 2.32, -7.8 11.58, -9.5 13.9 M0.45 -0.57 C-1.04 1.71, -8 10.91, -9.66 13.16" stroke="#1e1e1e" stroke-width="2" fill="none"></path></g></g><mask></mask><g stroke-linecap="round"><g transform="translate(166.89610898347178 232.39829824208095) rotate(0 11.000534057617188 10.338180541992188)"><path d="M-0.44 -1.03 C3.08 2.32, 17.86 16.66, 21.61 20.24 M1.54 1.04 C4.82 4.54, 17.16 18.11, 20.46 21.55" stroke="#1e1e1e" stroke-width="2" fill="none"></path></g></g><mask></mask><g stroke-linecap="round"><g transform="translate(197.9220184072999 182.90345571278408) rotate(0 7.2144775390625 8.989654541015625)"><path d="M0 0.32 C2.32 3.27, 11.66 14.72, 14.03 17.72 M-0.66 0.01 C1.82 3.03, 12.66 15.38, 15.06 18.28" stroke="#1e1e1e" stroke-width="2" fill="none"></path></g></g><mask></mask><g stroke-linecap="round"><g transform="translate(236.35054623933115 232.12890109007674) rotate(0 9.847503662109375 11.717309659986483)"><path d="M1.04 0.84 C4.1 4.48, 15.85 18.94, 18.91 22.8 M0.13 0.24 C3.52 3.94, 18.15 20.38, 21.21 24" stroke="#1e1e1e" stroke-width="2" fill="none"></path></g></g><mask></mask><g stroke-linecap="round" transform="translate(70.88953775998874 100.31593129872158) rotate(0 121.50674144851132 157.57438601278037)"><path d="M32 0 C74.07 -0.18, 113.25 -0.47, 211.01 0 M211.01 0 C232.04 0.32, 241.02 12.15, 243.01 32 M243.01 32 C242.47 130.06, 240.44 226.01, 243.01 283.15 M243.01 283.15 C243.29 303.82, 233.37 313.91, 211.01 315.15 M211.01 315.15 C161.16 317.73, 108.17 314.38, 32 315.15 M32 315.15 C10.34 315.41, -1.97 304.87, 0 283.15 M0 283.15 C0.7 224.21, 0.31 167.86, 0 32 M0 32 C-1.26 9.52, 9.03 0.88, 32 0" stroke="#1e1e1e" stroke-width="2.5" fill="none" stroke-dasharray="8 10"></path></g><g transform="translate(86.84395147551948 120.14350698231533) rotate(0 51.5625 9.599999999999994)"><text x="0" y="15.45" font-family="Cascadia, Segoe UI Emoji" font-size="16px" fill="#1e1e1e" text-anchor="start" style="white-space: pre;" direction="ltr" dominant-baseline="alphabetic">source code</text></g><g stroke-linecap="round" transform="translate(436.5706288792047 157.31208608387783) rotate(0 77.11972045898443 55.401031494140625)"><path d="M97.5 14 C112.11 26.58, 124.39 37.41, 134.74 42 M97.5 14 C108.06 22.09, 118.56 31.02, 134.74 42 M134.74 42 C155.66 54.66, 156.22 54.73, 134.74 70 M134.74 42 C155.89 56.64, 153.86 54.05, 134.74 70 M134.74 70 C123.99 79.48, 109.19 88.92, 97.5 96.8 M134.74 70 C122.63 78.39, 111.37 85.38, 97.5 96.8 M97.5 96.8 C76.74 110.9, 77.43 109.77, 58.5 96.8 M97.5 96.8 C78.09 109.44, 77.99 113, 58.5 96.8 M58.5 96.8 C44.58 88.43, 34.88 80.63, 19.5 70 M58.5 96.8 C45.07 87.8, 30.7 78.37, 19.5 70 M19.5 70 C-1.82 54.07, 1.28 54.32, 19.5 42 M19.5 70 C-1.88 54.8, 0.94 55.72, 19.5 42 M19.5 42 C31.42 35.97, 43.38 25.74, 58.5 14 M19.5 42 C33.72 31.42, 47.56 21.74, 58.5 14 M58.5 14 C79.81 -0.94, 76.74 1.15, 97.5 14 M58.5 14 C77.49 -1.87, 78.38 1.58, 97.5 14" stroke="#1e1e1e" stroke-width="2" fill="none"></path></g><g transform="translate(480.8179891086969 202.91260183094812) rotate(0 32.8125 9.599999999999994)"><text x="32.8125" y="15.45" font-family="Cascadia, Segoe UI Emoji" font-size="16px" fill="#1e1e1e" text-anchor="middle" style="white-space: pre;" direction="ltr" dominant-baseline="alphabetic">webpack</text></g><g stroke-linecap="round" transform="translate(372.0563586615716 353.1753276905421) rotate(0 155.44209511519603 24.5)"><path d="M12.25 0 C75.38 1.02, 138.81 -0.73, 298.63 0 M12.25 0 C92.06 -2.8, 171.63 -2.23, 298.63 0 M298.63 0 C306.15 -1.66, 310.45 4.41, 310.88 12.25 M298.63 0 C309.07 -0.84, 308.75 1.99, 310.88 12.25 M310.88 12.25 C311.17 20.81, 309.77 29.52, 310.88 36.75 M310.88 12.25 C311.12 19.32, 310.57 25.92, 310.88 36.75 M310.88 36.75 C312.28 44.45, 306.6 50.21, 298.63 49 M310.88 36.75 C311.72 44.27, 306.12 47.93, 298.63 49 M298.63 49 C204.96 46.46, 112.5 47.33, 12.25 49 M298.63 49 C221.5 50.05, 145.26 49.66, 12.25 49 M12.25 49 C5.39 47.11, 1.5 45.34, 0 36.75 M12.25 49 C3.25 46.7, -1.33 42.78, 0 36.75 M0 36.75 C-1.54 32.66, 1.07 26.43, 0 12.25 M0 36.75 C-0.05 31.91, 0.31 25.16, 0 12.25 M0 12.25 C-1.45 2.59, 5.63 -1.05, 12.25 0 M0 12.25 C-1.13 3.35, 5.85 -2.2, 12.25 0" stroke="#1e1e1e" stroke-width="2" fill="none"></path></g><g transform="translate(382.18595377676763 368.07532769054205) rotate(0 145.3125 9.599999999999994)"><text x="145.3125" y="15.45" font-family="Cascadia, Segoe UI Emoji" font-size="16px" fill="#1e1e1e" text-anchor="middle" style="white-space: pre;" direction="ltr" dominant-baseline="alphabetic">react-server-dom-webpack/plugin</text></g><g mask="url(#mask-44Oq3TTmlVH-83jbbBvbd)" stroke-linecap="round"><g transform="translate(520.4257214574045 350.89615288585463) rotate(0 -1.1249899527866773 -43.93677827403528)"><path d="M0.7 0.84 C0.31 -13.74, -2.66 -73.25, -3.22 -88.03 M-0.39 0.23 C-0.33 -14.11, -0.48 -72.13, -1.02 -86.58" stroke="#1e1e1e" stroke-width="2" fill="none"></path></g><g transform="translate(520.4257214574045 350.89615288585463) rotate(0 -1.1249899527866773 -43.93677827403528)"><path d="M7.93 -63.24 C7.4 -70.11, 3.7 -74.47, -1.02 -86.58 M7.93 -63.24 C5.35 -70, 1.77 -77.21, -1.02 -86.58" stroke="#1e1e1e" stroke-width="2" fill="none"></path></g><g transform="translate(520.4257214574045 350.89615288585463) rotate(0 -1.1249899527866773 -43.93677827403528)"><path d="M-9.16 -62.95 C-5.81 -69.99, -5.62 -74.41, -1.02 -86.58 M-9.16 -62.95 C-6.57 -69.65, -4.99 -76.95, -1.02 -86.58" stroke="#1e1e1e" stroke-width="2" fill="none"></path></g></g><mask id="mask-44Oq3TTmlVH-83jbbBvbd"><rect x="0" y="0" fill="#fff" width="622.6757013629779" height="538.7697094339252"></rect><rect x="500.55073150461794" y="297.35937461181936" fill="#000" width="37.5" height="19.2" opacity="1"></rect></mask><g transform="translate(500.55073150461783 297.35937461181936) rotate(0 18.61715706065297 9.93847477957604)"><text x="18.75" y="15.45" font-family="Cascadia, Segoe UI Emoji" font-size="16px" fill="#1e1e1e" text-anchor="middle" style="white-space: pre;" direction="ltr" dominant-baseline="alphabetic">used</text></g><g mask="url(#mask-WCw6DpIA32G41iqaj-I8K)" stroke-linecap="round"><g transform="translate(312.9244630498365 218.18721280663453) rotate(0 66.2738020927942 -1.4337028877455396)"><path d="M0.61 -0.09 C22.82 -0.72, 111.65 -2.36, 133.58 -2.97 M-0.52 -1.19 C21.59 -1.68, 111.21 -1.21, 133.17 -1.49" stroke="#1e1e1e" stroke-width="2" fill="none"></path></g><g transform="translate(312.9244630498365 218.18721280663453) rotate(0 66.2738020927942 -1.4337028877455396)"><path d="M109.71 7.13 C117.16 5.92, 124.8 0.82, 133.17 -1.49 M109.71 7.13 C115.68 5.68, 120.59 2.92, 133.17 -1.49" stroke="#1e1e1e" stroke-width="2" fill="none"></path></g><g transform="translate(312.9244630498365 218.18721280663453) rotate(0 66.2738020927942 -1.4337028877455396)"><path d="M109.66 -9.97 C117.24 -5.6, 124.9 -5.11, 133.17 -1.49 M109.66 -9.97 C115.76 -7.53, 120.68 -6.38, 133.17 -1.49" stroke="#1e1e1e" stroke-width="2" fill="none"></path></g></g><mask id="mask-WCw6DpIA32G41iqaj-I8K"><rect x="0" y="0" fill="#fff" width="545.4720672354249" height="321.0546185821256"></rect><rect x="355.7607651426307" y="207.15350991888897" fill="#000" width="46.875" height="19.2" opacity="1"></rect></mask><g transform="translate(355.7607651426307 207.15350991888897) rotate(0 23.691438506240985 9.502706558257358)"><text x="23.4375" y="15.45" font-family="Cascadia, Segoe UI Emoji" font-size="16px" fill="#1e1e1e" text-anchor="middle" style="white-space: pre;" direction="ltr" dominant-baseline="alphabetic">build</text></g><g stroke-linecap="round" transform="translate(775.8596537664696 158.71244835971845) rotate(0 58.77768192851897 23.534292051331647)"><path d="M11.77 0 C49.02 -1.84, 86.32 -2.02, 105.79 0 C114.83 2.53, 114.63 2.89, 117.56 11.77 C118.1 17.47, 120.19 31.34, 117.56 35.3 C116.6 39.73, 110.82 45.01, 105.79 47.07 C77.58 50.07, 53.26 49.52, 11.77 47.07 C6.43 47.12, 0.95 45.76, 0 35.3 C-2.05 33.17, -0.66 22.01, 0 11.77 C2.39 2.53, 2.76 -2.37, 11.77 0" stroke="none" stroke-width="0" fill="#ffec99"></path><path d="M11.77 0 C37.03 1.42, 64.78 2.43, 105.79 0 M11.77 0 C34.88 0.64, 56.93 0.87, 105.79 0 M105.79 0 C115.09 1.35, 117.86 4.23, 117.56 11.77 M105.79 0 C112.46 -2.15, 118.96 3.5, 117.56 11.77 M117.56 11.77 C117.16 18.36, 116.93 25.92, 117.56 35.3 M117.56 11.77 C117.6 20.51, 117.75 28.27, 117.56 35.3 M117.56 35.3 C116.79 41.24, 111.98 45.49, 105.79 47.07 M117.56 35.3 C116.63 41.98, 113.06 44.81, 105.79 47.07 M105.79 47.07 C70.7 45.54, 36.02 46.98, 11.77 47.07 M105.79 47.07 C78.59 47.59, 51.41 47.09, 11.77 47.07 M11.77 47.07 C2.89 48.86, 1.65 42.35, 0 35.3 M11.77 47.07 C4.82 48.44, 1.7 43.26, 0 35.3 M0 35.3 C-0.83 27.77, -1.43 17.29, 0 11.77 M0 35.3 C0.5 28.56, 0.5 20.66, 0 11.77 M0 11.77 C1.54 4.24, 3.77 1.68, 11.77 0 M0 11.77 C1.49 6.03, 3.63 -0.25, 11.77 0" stroke="#1e1e1e" stroke-width="2" fill="none"></path></g><g transform="translate(801.8248356949886 172.64674041105008) rotate(0 32.81249999999994 9.599999999999994)"><text x="32.8125" y="15.45" font-family="Cascadia, Segoe UI Emoji" font-size="16px" fill="#1e1e1e" text-anchor="middle" style="white-space: pre;" direction="ltr" dominant-baseline="alphabetic">main.js</text></g><g stroke-linecap="round" transform="translate(933.7530322167686 159.1751589786884) rotate(0 77.66625517726061 24.5)"><path d="M12.25 0 C54.06 2.24, 100.62 0.45, 143.08 0 C153.59 1.1, 158.02 4.53, 155.33 12.25 C158.07 17.99, 158.45 28.26, 155.33 36.75 C158.85 45.22, 150.64 47.9, 143.08 49 C93.72 49.8, 39.67 44.27, 12.25 49 C2.59 46.63, -0.93 47.65, 0 36.75 C-3.35 27.05, -0.42 21.32, 0 12.25 C-2.63 0.68, 6.29 3.51, 12.25 0" stroke="none" stroke-width="0" fill="#ffec99"></path><path d="M12.25 0 C55.87 -0.37, 99.02 -0.62, 143.08 0 M12.25 0 C51.39 -0.97, 88.59 0.11, 143.08 0 M143.08 0 C149.25 -0.23, 155.35 2.95, 155.33 12.25 M143.08 0 C151.31 -1.41, 156.1 5.7, 155.33 12.25 M155.33 12.25 C155.88 16.17, 155.49 21.39, 155.33 36.75 M155.33 12.25 C154.56 20.52, 154.93 29.99, 155.33 36.75 M155.33 36.75 C154.64 45.19, 149.32 50.54, 143.08 49 M155.33 36.75 C153.39 46.33, 152.85 49.03, 143.08 49 M143.08 49 C100.66 48.52, 56.56 49.59, 12.25 49 M143.08 49 C105.62 49.55, 68.27 49.04, 12.25 49 M12.25 49 C2.22 49.33, -0.11 46.21, 0 36.75 M12.25 49 C4.85 48.31, 1.5 44.27, 0 36.75 M0 36.75 C-0.38 30.7, -2.07 21.51, 0 12.25 M0 36.75 C-0.91 30.55, 0.01 23.25, 0 12.25 M0 12.25 C-1.96 3.32, 2.63 0.97, 12.25 0 M0 12.25 C0.73 2.65, 5.43 -1.3, 12.25 0" stroke="#1e1e1e" stroke-width="2" fill="none"></path></g><g transform="translate(964.5442873940292 174.07515897868836) rotate(0 46.875 9.599999999999994)"><text x="46.875" y="15.45" font-family="Cascadia, Segoe UI Emoji" font-size="16px" fill="#1e1e1e" text-anchor="middle" style="white-space: pre;" direction="ltr" dominant-baseline="alphabetic">vernder.js</text></g><g stroke-linecap="round" transform="translate(779.2522868111541 233.82178471552317) rotate(0 67.9092285865064 24.5)"><path d="M12.25 0 C54.92 -1.58, 94.8 -0.49, 123.57 0 C133.21 1.23, 134.17 3.87, 135.82 12.25 C135.82 15.43, 136.36 26.78, 135.82 36.75 C138.2 44.18, 133.07 47.56, 123.57 49 C83.79 49.02, 37.71 51.87, 12.25 49 C0.83 47.46, -3.56 42.38, 0 36.75 C1.62 31.57, 0.69 22.05, 0 12.25 C-1.77 4.53, 3.58 0.41, 12.25 0" stroke="none" stroke-width="0" fill="#b2f2bb"></path><path d="M12.25 0 C47.97 1.21, 84.75 -0.22, 123.57 0 M12.25 0 C37.15 -1.61, 60.69 -1.25, 123.57 0 M123.57 0 C133.32 0.1, 135.68 2.78, 135.82 12.25 M123.57 0 C132.24 2.17, 134.45 4.64, 135.82 12.25 M135.82 12.25 C135.13 19.32, 134.29 23.6, 135.82 36.75 M135.82 12.25 C136.41 17.98, 135.64 21.69, 135.82 36.75 M135.82 36.75 C134.3 43.94, 131.9 47.25, 123.57 49 M135.82 36.75 C134.24 42.74, 132.7 50.57, 123.57 49 M123.57 49 C95.05 46.79, 69.95 49.65, 12.25 49 M123.57 49 C79.77 48.71, 36.73 49.71, 12.25 49 M12.25 49 C3.23 49.2, 0.38 43.58, 0 36.75 M12.25 49 C2.03 49.32, 0.55 45.35, 0 36.75 M0 36.75 C0.43 30.23, -1.16 23.39, 0 12.25 M0 36.75 C0.8 29.36, 0.9 22.92, 0 12.25 M0 12.25 C1.41 3.91, 4.72 1.79, 12.25 0 M0 12.25 C0.83 2.67, 3.79 -0.8, 12.25 0" stroke="#1e1e1e" stroke-width="2" fill="none"></path></g><g transform="translate(786.2240153976605 248.72178471552314) rotate(0 60.93749999999994 9.599999999999994)"><text x="60.9375" y="15.45" font-family="Cascadia, Segoe UI Emoji" font-size="16px" fill="#1e1e1e" text-anchor="middle" style="white-space: pre;" direction="ltr" dominant-baseline="alphabetic">chunk1.js(c1)</text></g><g stroke-linecap="round" transform="translate(931.8473040263268 231.69862303176495) rotate(0 74.57053342851384 24.5)"><path d="M12.25 0 C45.4 -2.11, 77.94 0.56, 136.89 0 C145.56 0, 146.29 5.96, 149.14 12.25 C148.05 22.92, 150.91 29.55, 149.14 36.75 C146.03 44.95, 146.91 50.78, 136.89 49 C101.78 45.6, 61.41 50.29, 12.25 49 C5.72 47.18, 0.77 43.29, 0 36.75 C3.62 31.06, 1.79 26.76, 0 12.25 C-1.44 0.55, 5.2 -1.93, 12.25 0" stroke="none" stroke-width="0" fill="#b2f2bb"></path><path d="M12.25 0 C40.8 -0.14, 73.18 -0.6, 136.89 0 M12.25 0 C40.95 -0.17, 68.14 -1.04, 136.89 0 M136.89 0 C143.71 -0.09, 150.74 3.99, 149.14 12.25 M136.89 0 C144.6 -1.99, 147.99 1.88, 149.14 12.25 M149.14 12.25 C148.96 16.79, 147.38 23.79, 149.14 36.75 M149.14 12.25 C149.82 16.72, 150.1 22.48, 149.14 36.75 M149.14 36.75 C149.89 43.93, 145.59 50.89, 136.89 49 M149.14 36.75 C148.91 44.45, 146.95 51.18, 136.89 49 M136.89 49 C109.84 48.85, 85.86 47, 12.25 49 M136.89 49 C106.01 50.16, 73.97 49.26, 12.25 49 M12.25 49 C4.47 50.69, -0.53 46.77, 0 36.75 M12.25 49 C5.86 46.74, -0.16 44.12, 0 36.75 M0 36.75 C1.68 30.15, -1.94 18.93, 0 12.25 M0 36.75 C-0.5 28.65, -0.24 19.19, 0 12.25 M0 12.25 C1.14 5.79, 3.61 -0.03, 12.25 0 M0 12.25 C-1.57 3, 3.16 -0.05, 12.25 0" stroke="#1e1e1e" stroke-width="2" fill="none"></path></g><g transform="translate(945.4803374548408 246.59862303176493) rotate(0 60.9375 9.599999999999994)"><text x="60.9375" y="15.45" font-family="Cascadia, Segoe UI Emoji" font-size="16px" fill="#1e1e1e" text-anchor="middle" style="white-space: pre;" direction="ltr" dominant-baseline="alphabetic">chunk2.js(c2)</text></g><g stroke-linecap="round" transform="translate(1089.220255340078 232.46474397725035) rotate(0 72.57342965819817 24.5)"><path d="M12.25 0 C45.43 0.56, 75.94 -1.73, 132.9 0 C140.43 0.47, 147.44 3.96, 145.15 12.25 C141.68 19.6, 147.4 24.53, 145.15 36.75 C143.14 48.35, 138.35 52.29, 132.9 49 C98.98 49.14, 68.91 51.74, 12.25 49 C6.55 46.61, -2.61 47.99, 0 36.75 C3.03 26.99, 0.91 23.67, 0 12.25 C-0.88 2.2, 7.15 -2.15, 12.25 0" stroke="none" stroke-width="0" fill="#b2f2bb"></path><path d="M12.25 0 C56.01 1.9, 100.16 1.84, 132.9 0 M12.25 0 C57.96 -1.18, 102.02 -0.29, 132.9 0 M132.9 0 C141.52 -0.77, 145.3 3.27, 145.15 12.25 M132.9 0 C142.84 1.13, 146.62 5.79, 145.15 12.25 M145.15 12.25 C143.03 21.11, 146.04 26.94, 145.15 36.75 M145.15 12.25 C145.94 22.11, 144.86 29.53, 145.15 36.75 M145.15 36.75 C144.39 43.65, 140.72 48.78, 132.9 49 M145.15 36.75 C147.36 43.32, 140.46 49.95, 132.9 49 M132.9 49 C97.79 48.87, 64.68 50.77, 12.25 49 M132.9 49 C86.67 48.73, 39.43 50.04, 12.25 49 M12.25 49 C3.2 48.18, 0.07 43.22, 0 36.75 M12.25 49 C3.06 46.95, -1.01 43.37, 0 36.75 M0 36.75 C1.3 30, 1.43 27.29, 0 12.25 M0 36.75 C-0.29 31.43, -0.87 25.07, 0 12.25 M0 12.25 C-1.17 3.76, 3.73 -0.63, 12.25 0 M0 12.25 C2.04 5.32, 1.98 0.04, 12.25 0" stroke="#1e1e1e" stroke-width="2" fill="none"></path></g><g transform="translate(1100.8561849982761 247.36474397725033) rotate(0 60.9375 9.599999999999994)"><text x="60.9375" y="15.45" font-family="Cascadia, Segoe UI Emoji" font-size="16px" fill="#1e1e1e" text-anchor="middle" style="white-space: pre;" direction="ltr" dominant-baseline="alphabetic">chunk3.js(c3)</text></g><g stroke-linecap="round" transform="translate(785.633194935026 303.9842397207773) rotate(0 134.0587659206485 24.5)"><path d="M12.25 0 C100.57 0.28, 189.75 -1.3, 255.87 0 C265.69 -0.04, 267.07 1.21, 268.12 12.25 C265.8 20.76, 267.17 25.82, 268.12 36.75 C271.04 47.77, 263.15 51.7, 255.87 49 C203.66 48.69, 143.57 47.33, 12.25 49 C7.15 49.51, -0.63 41.78, 0 36.75 C-1.38 27.36, 3.28 25.55, 0 12.25 C-3.34 3.47, 6.96 -2.42, 12.25 0" stroke="none" stroke-width="0" fill="#ffec99"></path><path d="M12.25 0 C85.62 1.23, 158.99 0.59, 255.87 0 M12.25 0 C96.79 1.6, 181.3 1.51, 255.87 0 M255.87 0 C264.19 1.06, 269.93 4.05, 268.12 12.25 M255.87 0 C262.97 0.46, 269.56 3.77, 268.12 12.25 M268.12 12.25 C266.54 17.75, 267.58 26.36, 268.12 36.75 M268.12 12.25 C268.54 21.39, 268.86 31.47, 268.12 36.75 M268.12 36.75 C269.36 46.25, 263.89 49.57, 255.87 49 M268.12 36.75 C269.83 45.55, 264.85 49.96, 255.87 49 M255.87 49 C201.63 46.68, 145.93 46.72, 12.25 49 M255.87 49 C202.38 46.99, 148.07 48, 12.25 49 M12.25 49 C3.97 47.68, -1.76 44.49, 0 36.75 M12.25 49 C3.67 48.61, 1.43 46.43, 0 36.75 M0 36.75 C-0.27 29.67, -1.3 25.52, 0 12.25 M0 36.75 C-1 30.39, -0.8 24.72, 0 12.25 M0 12.25 C1.78 4.59, 4.81 -1.7, 12.25 0 M0 12.25 C-1.82 3.9, 4.11 -1.21, 12.25 0" stroke="#1e1e1e" stroke-width="2" fill="none"></path></g><g transform="translate(797.8169608556746 318.88423972077726) rotate(0 121.875 9.599999999999994)"><text x="121.875" y="15.45" font-family="Cascadia, Segoe UI Emoji" font-size="16px" fill="#1e1e1e" text-anchor="middle" style="white-space: pre;" direction="ltr" dominant-baseline="alphabetic">react-client-manifest.json</text></g><g stroke-linecap="round" transform="translate(1073.4463401919706 306.6988977356312) rotate(0 126.63639307262667 24.5)"><path d="M12.25 0 C83.25 -0.26, 154.42 4.7, 241.02 0 C252.78 -1.62, 255.96 7.56, 253.27 12.25 C249.45 23.04, 253.41 28.37, 253.27 36.75 C250.44 45.94, 250.01 46.96, 241.02 49 C159.42 43.56, 78.56 49.08, 12.25 49 C1.03 47.7, -2.44 47.49, 0 36.75 C0.85 27.15, 3.38 21.04, 0 12.25 C3.07 2.88, 4.05 -0.72, 12.25 0" stroke="none" stroke-width="0" fill="#ffec99"></path><path d="M12.25 0 C80.69 -0.61, 152.68 1.43, 241.02 0 M12.25 0 C76.65 -1.08, 142.49 -1.03, 241.02 0 M241.02 0 C249.19 0.48, 254.85 4.07, 253.27 12.25 M241.02 0 C250.17 2.03, 252.14 4.93, 253.27 12.25 M253.27 12.25 C254.85 19.41, 254.61 24.68, 253.27 36.75 M253.27 12.25 C253.27 20.57, 253.89 30.75, 253.27 36.75 M253.27 36.75 C252.46 46.19, 247.43 49.78, 241.02 49 M253.27 36.75 C253.13 42.76, 249.06 47.92, 241.02 49 M241.02 49 C165.33 47.98, 90.59 47.11, 12.25 49 M241.02 49 C153.96 50.59, 66.76 51, 12.25 49 M12.25 49 C4.79 47.17, -0.31 46.2, 0 36.75 M12.25 49 C6.2 48.91, -1.2 44.08, 0 36.75 M0 36.75 C-0.8 27.16, 0.93 18.91, 0 12.25 M0 36.75 C0.39 27.85, -0.08 19.64, 0 12.25 M0 12.25 C-1.69 5.92, 4.17 1.71, 12.25 0 M0 12.25 C0.51 3.82, 4.72 1.46, 12.25 0" stroke="#1e1e1e" stroke-width="2" fill="none"></path></g><g transform="translate(1092.2702332645972 321.5988977356312) rotate(0 107.8125 9.599999999999994)"><text x="107.8125" y="15.45" font-family="Cascadia, Segoe UI Emoji" font-size="16px" fill="#1e1e1e" text-anchor="middle" style="white-space: pre;" direction="ltr" dominant-baseline="alphabetic">react-ssr-manifest.json</text></g><g stroke-linecap="round" transform="translate(743.900399155883 88.85101759415488) rotate(0 304.64296127909483 148.5695236411414)"><path d="M32 0 C187.49 -0.32, 342.23 0.09, 577.29 0 M577.29 0 C598.96 -0.71, 608.65 11.55, 609.29 32 M609.29 32 C606.8 87.96, 609 145.74, 609.29 265.14 M609.29 265.14 C609.68 286.86, 600.19 298.94, 577.29 297.14 M577.29 297.14 C420.25 296.03, 261.93 295.3, 32 297.14 M32 297.14 C10.67 297.83, -1.04 284.57, 0 265.14 M0 265.14 C-0.39 208.15, -0.68 152.99, 0 32 M0 32 C-1.46 10.4, 9.2 0.57, 32 0" stroke="#1e1e1e" stroke-width="2.5" fill="none" stroke-dasharray="8 10"></path></g><g transform="translate(771.3936980947999 96.88551137684658) rotate(0 75 9.599999999999994)"><text x="0" y="15.45" font-family="Cascadia, Segoe UI Emoji" font-size="16px" fill="#1e1e1e" text-anchor="start" style="white-space: pre;" direction="ltr" dominant-baseline="alphabetic">output artifacts</text></g><g stroke-linecap="round"><g transform="translate(587.9061954480867 208.85175540921978) rotate(0 77.0033948780441 -3.8230491078931266)"><path d="M0.94 0.91 C26.43 -0.58, 127.72 -7.22, 153.17 -8.81 M-0.02 0.34 C25.82 -1.06, 129.99 -6.52, 155.44 -7.88" stroke="#1e1e1e" stroke-width="2" fill="none"></path></g><g transform="translate(587.9061954480867 208.85175540921978) rotate(0 77.0033948780441 -3.8230491078931266)"><path d="M132.43 1.9 C141.38 -2.84, 145.36 -5.21, 155.44 -7.88 M132.43 1.9 C137.9 -0.16, 142.39 -2.5, 155.44 -7.88" stroke="#1e1e1e" stroke-width="2" fill="none"></path></g><g transform="translate(587.9061954480867 208.85175540921978) rotate(0 77.0033948780441 -3.8230491078931266)"><path d="M131.53 -15.18 C140.79 -14.41, 145.06 -11.25, 155.44 -7.88 M131.53 -15.18 C137.27 -13.52, 141.95 -12.15, 155.44 -7.88" stroke="#1e1e1e" stroke-width="2" fill="none"></path></g></g><mask></mask><g transform="translate(90.094377717682 466.12332533016) rotate(0 544.921875 12)"><text x="0" y="19.3125" font-family="Cascadia, Segoe UI Emoji" font-size="20px" fill="#1e1e1e" text-anchor="start" style="white-space: pre;" direction="ltr" dominant-baseline="alphabetic">1. react-client-manifest.json holds the match of client component identity to splited chunks.</text></g><g transform="translate(88.50888483829823 497.39567940483096) rotate(0 585.9375 12)"><text x="0" y="19.3125" font-family="Cascadia, Segoe UI Emoji" font-size="20px" fill="#1e1e1e" text-anchor="start" style="white-space: pre;" direction="ltr" dominant-baseline="alphabetic">2. react-ssr-manifest.json holds the match of client component identity to location in file system. </text></g><g stroke-linecap="round" transform="translate(169.38646841465248 736.4995495241878) rotate(0 17.127273559570312 24.5)"><path d="M15.03 0.54 C18.43 -0.21, 23.64 1.6, 26.74 4.44 C29.84 7.29, 32.57 12.62, 33.63 17.63 C34.69 22.63, 34.62 29.72, 33.08 34.46 C31.54 39.21, 27.73 43.81, 24.39 46.11 C21.05 48.41, 16.56 49.47, 13.06 48.27 C9.57 47.08, 5.51 43.17, 3.42 38.96 C1.32 34.75, 0.35 28.31, 0.49 23.03 C0.63 17.75, 1.73 11.12, 4.26 7.27 C6.78 3.43, 13.75 1.11, 15.64 -0.04 C17.52 -1.2, 15.57 -0.14, 15.57 0.36 M20.14 0.48 C23.69 0.99, 27.77 4.15, 30.24 8.23 C32.72 12.3, 35.03 19.52, 35 24.93 C34.96 30.34, 32.53 36.74, 30.06 40.67 C27.59 44.6, 23.87 47.69, 20.19 48.49 C16.52 49.3, 11.22 47.95, 8.02 45.51 C4.82 43.06, 2.08 38.73, 0.98 33.83 C-0.13 28.93, 0.23 21.11, 1.41 16.11 C2.59 11.11, 4.84 6.39, 8.05 3.84 C11.26 1.28, 18.75 1.34, 20.66 0.79 C22.57 0.24, 19.66 0.31, 19.5 0.55" stroke="none" stroke-width="0" fill="#ffc9c9"></path><path d="M18.29 0.22 C21.8 0.39, 26.71 3.71, 29.43 7.32 C32.15 10.93, 34.38 16.77, 34.62 21.87 C34.85 26.98, 32.98 33.62, 30.85 37.95 C28.72 42.28, 25.35 46.39, 21.82 47.85 C18.28 49.32, 13.08 48.91, 9.65 46.74 C6.22 44.57, 2.83 39.59, 1.24 34.84 C-0.35 30.09, -0.85 23.32, 0.1 18.26 C1.04 13.21, 3.73 7.55, 6.91 4.5 C10.09 1.44, 17.16 0.64, 19.18 -0.08 C21.2 -0.79, 19.03 -0.18, 19.05 0.2 M18.32 0 C21.64 0.1, 25.81 3.18, 28.56 6.93 C31.31 10.69, 34.33 17.4, 34.81 22.53 C35.29 27.67, 33.75 33.42, 31.44 37.75 C29.12 42.08, 24.42 47.08, 20.91 48.52 C17.39 49.96, 13.49 48.68, 10.34 46.4 C7.19 44.12, 3.74 39.42, 2 34.83 C0.25 30.25, -0.88 23.9, -0.11 18.91 C0.66 13.93, 3.47 8.02, 6.61 4.91 C9.75 1.8, 16.62 1.06, 18.72 0.24 C20.82 -0.58, 19.14 -0.4, 19.22 0" stroke="#1e1e1e" stroke-width="2" fill="none"></path></g><g transform="translate(182.05893655638857 751.1754333851173) rotate(0 4.343994140625 10)"><text x="4.343994140625" y="14.016" font-family="Virgil, Segoe UI Emoji" font-size="16px" fill="#1e1e1e" text-anchor="middle" style="white-space: pre;" direction="ltr" dominant-baseline="alphabetic">s</text></g><g stroke-linecap="round" transform="translate(141.62558116503675 786.9498129961531) rotate(0 16.69256591796875 21)"><path d="M19.84 0.59 C23.21 1.08, 27.59 4.59, 29.77 7.98 C31.95 11.37, 33 16.51, 32.91 20.93 C32.81 25.36, 31.46 31.12, 29.21 34.55 C26.97 37.97, 22.87 40.73, 19.44 41.47 C16.02 42.2, 11.83 41.28, 8.69 38.96 C5.54 36.64, 1.82 31.79, 0.59 27.54 C-0.64 23.29, 0.02 17.65, 1.3 13.48 C2.59 9.31, 5.15 4.62, 8.31 2.52 C11.47 0.41, 18.18 1.16, 20.27 0.86 C22.36 0.57, 20.96 0.45, 20.85 0.75 M18.24 0.68 C21.58 0.77, 25.25 3.24, 27.74 6.17 C30.23 9.11, 32.81 13.95, 33.19 18.26 C33.58 22.57, 32 28.12, 30.05 32.05 C28.11 35.97, 24.76 40.45, 21.53 41.8 C18.3 43.15, 14 41.94, 10.66 40.14 C7.32 38.35, 3.06 34.94, 1.47 31.05 C-0.12 27.16, 0.34 21.32, 1.12 16.82 C1.91 12.31, 3.46 6.9, 6.2 4.01 C8.93 1.12, 15.62 0.13, 17.54 -0.51 C19.46 -1.14, 17.65 -0.26, 17.71 0.22" stroke="none" stroke-width="0" fill="#ffc9c9"></path><path d="M18.31 -0.3 C21.61 -0.38, 25.41 2.28, 27.93 5.42 C30.46 8.56, 33.08 14, 33.45 18.55 C33.83 23.1, 32.29 28.98, 30.19 32.73 C28.09 36.48, 24.33 39.81, 20.87 41.05 C17.41 42.28, 12.68 41.95, 9.43 40.14 C6.18 38.33, 2.82 34.25, 1.37 30.17 C-0.08 26.1, -0.15 20.13, 0.72 15.68 C1.59 11.24, 3.58 6.16, 6.59 3.5 C9.61 0.85, 16.75 0.21, 18.8 -0.23 C20.84 -0.68, 18.99 0.46, 18.87 0.84 M16.83 0.24 C20.37 -0.25, 24.71 0.96, 27.29 3.77 C29.88 6.58, 31.59 12.64, 32.35 17.11 C33.1 21.59, 33.32 26.74, 31.8 30.63 C30.28 34.52, 26.74 38.6, 23.24 40.44 C19.73 42.27, 14.34 42.96, 10.77 41.63 C7.2 40.31, 3.57 36.4, 1.83 32.48 C0.09 28.56, -0.42 22.74, 0.32 18.12 C1.06 13.5, 3.49 7.75, 6.26 4.74 C9.03 1.73, 15.33 0.92, 16.94 0.08 C18.55 -0.75, 16.11 -0.73, 15.93 -0.28" stroke="#1e1e1e" stroke-width="2" fill="none"></path></g><g transform="translate(154.17072638638138 798.1005705912356) rotate(0 4.343994140625 10)"><text x="4.343994140625" y="14.016" font-family="Virgil, Segoe UI Emoji" font-size="16px" fill="#1e1e1e" text-anchor="middle" style="white-space: pre;" direction="ltr" dominant-baseline="alphabetic">s</text></g><g stroke-linecap="round" transform="translate(209.05670624293128 783.7924948809188) rotate(0 20.550968289017362 21.428735903176687)"><path d="M22.52 -0.09 C26.64 0.09, 32.27 3.33, 35.36 6.68 C38.45 10.03, 40.71 15.43, 41.06 20 C41.41 24.58, 40.16 30.5, 37.46 34.14 C34.76 37.77, 29.18 40.78, 24.86 41.82 C20.54 42.86, 15.41 42.41, 11.52 40.38 C7.63 38.35, 3.25 33.77, 1.5 29.65 C-0.26 25.52, -0.37 20.02, 0.99 15.62 C2.35 11.22, 5.81 5.77, 9.64 3.25 C13.47 0.72, 21.35 0.83, 23.97 0.46 C26.59 0.1, 25.45 0.67, 25.38 1.08 M24.92 0.41 C29 0.93, 33.49 4.27, 36.17 8.05 C38.84 11.83, 40.98 18.48, 40.97 23.08 C40.97 27.69, 39.16 32.33, 36.14 35.67 C33.13 39.01, 27.19 42.4, 22.88 43.11 C18.56 43.83, 13.96 42.55, 10.24 39.97 C6.52 37.39, 2 32.17, 0.56 27.62 C-0.88 23.08, -0.19 16.95, 1.6 12.72 C3.38 8.48, 7.3 4.2, 11.27 2.21 C15.24 0.22, 23.12 0.88, 25.45 0.78 C27.77 0.68, 25.32 1.32, 25.21 1.62" stroke="none" stroke-width="0" fill="#b2f2bb"></path><path d="M17.13 0.05 C21.21 -0.9, 26.77 0.53, 30.49 2.84 C34.21 5.16, 37.97 9.64, 39.45 13.95 C40.94 18.26, 40.89 24.38, 39.4 28.72 C37.91 33.05, 34.22 37.7, 30.52 39.97 C26.82 42.23, 21.54 43.19, 17.21 42.31 C12.87 41.44, 7.3 38.25, 4.51 34.71 C1.73 31.18, 0.41 25.57, 0.49 21.1 C0.57 16.64, 2 11.45, 4.97 7.92 C7.95 4.4, 15.86 1.27, 18.33 -0.05 C20.8 -1.37, 19.78 -0.44, 19.81 0.01 M21.44 0.43 C25.66 0.56, 32.02 2.65, 35.34 5.79 C38.67 8.93, 41.13 14.53, 41.38 19.27 C41.62 24.01, 39.48 30.36, 36.82 34.23 C34.16 38.11, 29.52 41.37, 25.42 42.51 C21.31 43.66, 15.99 43.16, 12.2 41.1 C8.41 39.03, 4.49 34.26, 2.68 30.1 C0.88 25.95, 0.45 20.64, 1.39 16.17 C2.33 11.7, 4.92 5.86, 8.32 3.29 C11.71 0.72, 19.59 1.22, 21.77 0.74 C23.96 0.26, 21.3 0.11, 21.42 0.42" stroke="#1e1e1e" stroke-width="2" fill="none"></path></g><g transform="translate(223.39194738692464 795.0688263147035) rotate(0 6.183998107910156 10)"><text x="6.183998107910156" y="14.016" font-family="Virgil, Segoe UI Emoji" font-size="16px" fill="#1e1e1e" text-anchor="middle" style="white-space: pre;" direction="ltr" dominant-baseline="alphabetic">c1</text></g><g stroke-linecap="round" transform="translate(105.4056996778317 830.5914450762313) rotate(0 22.467193603515625 21)"><path d="M19.75 -0.09 C24.36 -0.88, 31.22 0.85, 35.19 3.27 C39.16 5.68, 42.22 10.11, 43.59 14.41 C44.96 18.71, 45.24 24.87, 43.39 29.06 C41.53 33.24, 36.8 37.38, 32.48 39.51 C28.17 41.65, 22.1 42.88, 17.5 41.86 C12.89 40.83, 7.79 37.02, 4.84 33.37 C1.89 29.73, -0.41 24.44, -0.19 20 C0.02 15.56, 2.8 9.95, 6.15 6.72 C9.51 3.49, 17.45 1.67, 19.94 0.6 C22.42 -0.47, 20.92 0.04, 21.07 0.3 M21.65 0.75 C26.4 0.37, 33.05 1.55, 36.79 4.28 C40.53 7.01, 43.05 12.63, 44.08 17.15 C45.11 21.67, 45.26 27.53, 42.98 31.38 C40.7 35.23, 34.99 38.72, 30.41 40.23 C25.83 41.74, 19.96 41.82, 15.49 40.42 C11.02 39.02, 6.06 35.53, 3.6 31.84 C1.13 28.15, 0 22.58, 0.7 18.28 C1.4 13.98, 4.26 9.09, 7.81 6.05 C11.35 3, 19.63 0.96, 21.97 0.04 C24.32 -0.89, 21.97 0.13, 21.9 0.49" stroke="none" stroke-width="0" fill="#b2f2bb"></path><path d="M18.99 0.05 C23.45 -0.8, 29.86 0.77, 33.96 3.18 C38.05 5.6, 41.95 10.29, 43.54 14.54 C45.13 18.79, 45.31 24.61, 43.5 28.69 C41.69 32.78, 36.88 36.98, 32.67 39.07 C28.46 41.15, 22.86 42.02, 18.24 41.2 C13.61 40.38, 7.95 37.68, 4.9 34.15 C1.85 30.63, -0.21 24.66, -0.07 20.05 C0.07 15.44, 2.42 9.73, 5.75 6.48 C9.08 3.23, 17.39 1.51, 19.92 0.54 C22.44 -0.43, 20.92 0.45, 20.9 0.65 M25.59 0.08 C29.99 0.51, 35.12 4, 38.23 7.38 C41.34 10.76, 43.86 15.96, 44.25 20.36 C44.63 24.76, 43.23 30.38, 40.55 33.8 C37.87 37.22, 32.77 39.89, 28.17 40.89 C23.58 41.88, 17.44 41.85, 13 39.78 C8.55 37.71, 3.57 32.52, 1.5 28.48 C-0.56 24.44, -0.72 19.72, 0.63 15.52 C1.97 11.33, 5.37 5.81, 9.56 3.31 C13.76 0.81, 23.05 0.97, 25.77 0.54 C28.49 0.11, 25.94 0.41, 25.86 0.74" stroke="#1e1e1e" stroke-width="2" fill="none"></path></g><g transform="translate(118.27419034423059 841.7422026713137) rotate(0 9.711997985839844 10)"><text x="9.711997985839844" y="14.016" font-family="Virgil, Segoe UI Emoji" font-size="16px" fill="#1e1e1e" text-anchor="middle" style="white-space: pre;" direction="ltr" dominant-baseline="alphabetic">c2</text></g><g stroke-linecap="round" transform="translate(253.88640536663394 836.7893515703719) rotate(0 21.018798828125 21)"><path d="M18.1 -0.32 C22.28 -1.11, 28.92 0.73, 32.73 3.23 C36.54 5.72, 39.68 10.27, 40.97 14.67 C42.26 19.07, 42.15 25.49, 40.47 29.62 C38.79 33.76, 34.95 37.48, 30.88 39.47 C26.81 41.47, 20.47 42.55, 16.05 41.58 C11.62 40.62, 7.03 37.22, 4.32 33.69 C1.61 30.15, -0.5 24.91, -0.21 20.38 C0.09 15.84, 2.78 9.87, 6.09 6.48 C9.4 3.09, 17.32 1.12, 19.63 0.04 C21.95 -1.04, 20.04 -0.35, 19.96 -0.01 M25.79 1.08 C30.05 1.98, 36.14 5.64, 38.77 9.17 C41.41 12.7, 42.03 17.94, 41.59 22.27 C41.14 26.59, 39.17 31.87, 36.13 35.11 C33.1 38.34, 27.78 41.08, 23.37 41.67 C18.96 42.26, 13.38 41.02, 9.67 38.65 C5.96 36.27, 2.38 31.79, 1.11 27.42 C-0.16 23.05, 0.24 16.63, 2.06 12.42 C3.87 8.21, 8.02 4.11, 11.99 2.15 C15.95 0.2, 23.53 0.83, 25.85 0.71 C28.17 0.58, 25.94 1.09, 25.9 1.41" stroke="none" stroke-width="0" fill="#b2f2bb"></path><path d="M19.19 0.04 C23.56 -0.57, 29.9 1.21, 33.56 3.76 C37.21 6.32, 39.96 11.03, 41.1 15.38 C42.25 19.72, 42.31 25.66, 40.42 29.83 C38.54 34.01, 33.99 38.56, 29.78 40.43 C25.58 42.3, 19.56 42.38, 15.19 41.03 C10.82 39.68, 6.1 35.98, 3.56 32.35 C1.03 28.72, -0.52 23.65, -0.02 19.27 C0.47 14.9, 3.29 9.38, 6.54 6.1 C9.78 2.81, 17.1 0.46, 19.45 -0.43 C21.81 -1.33, 20.59 0.24, 20.66 0.7 M19.83 0.45 C24.24 -0.01, 30.52 2.1, 34.27 4.73 C38.01 7.37, 41.3 11.86, 42.29 16.26 C43.28 20.65, 42.53 27.18, 40.22 31.11 C37.91 35.04, 32.8 38.09, 28.43 39.83 C24.05 41.58, 18.3 42.91, 13.97 41.59 C9.63 40.26, 4.6 35.77, 2.41 31.88 C0.21 27.99, -0.12 22.67, 0.78 18.26 C1.68 13.85, 4.46 8.42, 7.8 5.43 C11.15 2.43, 18.65 1.26, 20.85 0.31 C23.05 -0.65, 21.12 -0.55, 21.01 -0.29" stroke="#1e1e1e" stroke-width="2" fill="none"></path></g><g transform="translate(265.57867212378886 847.9401091654544) rotate(0 9.463996887207031 10)"><text x="9.463996887207031" y="14.016" font-family="Virgil, Segoe UI Emoji" font-size="16px" fill="#1e1e1e" text-anchor="middle" style="white-space: pre;" direction="ltr" dominant-baseline="alphabetic">c3</text></g><g stroke-linecap="round" transform="translate(183.43621005413394 834.0472861406844) rotate(0 16.69256591796875 21)"><path d="M12.58 0.39 C15.81 -0.79, 20.91 0.59, 24.2 2.58 C27.48 4.56, 30.93 8.24, 32.31 12.31 C33.69 16.39, 33.53 22.65, 32.49 27.02 C31.45 31.39, 29.03 35.97, 26.05 38.53 C23.08 41.09, 18.12 42.9, 14.62 42.37 C11.13 41.83, 7.43 38.66, 5.06 35.32 C2.69 31.98, 0.74 26.85, 0.43 22.32 C0.11 17.78, 1.1 11.77, 3.18 8.12 C5.25 4.47, 11.08 1.59, 12.88 0.42 C14.69 -0.75, 13.95 0.78, 14.02 1.09 M18.75 -0.04 C22.03 0.16, 26.75 3.17, 29.23 6.54 C31.7 9.92, 33.44 15.58, 33.61 20.21 C33.77 24.85, 32.44 30.66, 30.23 34.34 C28.02 38.01, 23.89 41.42, 20.35 42.28 C16.8 43.13, 12.13 41.74, 8.95 39.49 C5.77 37.24, 2.69 32.95, 1.29 28.77 C-0.11 24.59, -0.55 18.63, 0.54 14.42 C1.62 10.2, 4.69 5.84, 7.79 3.46 C10.88 1.09, 17.3 0.63, 19.11 0.17 C20.92 -0.29, 18.71 0.28, 18.65 0.7" stroke="none" stroke-width="0" fill="#ffc9c9"></path><path d="M16.25 -0.5 C19.69 -0.82, 24.97 1.48, 27.81 4.47 C30.64 7.46, 32.72 12.99, 33.28 17.45 C33.83 21.9, 32.94 27.38, 31.14 31.18 C29.33 34.98, 25.83 38.57, 22.47 40.24 C19.11 41.91, 14.32 42.62, 10.98 41.21 C7.64 39.81, 4.34 35.84, 2.46 31.82 C0.59 27.79, -0.88 21.48, -0.27 17.06 C0.34 12.64, 3.26 8.1, 6.1 5.3 C8.94 2.5, 14.89 1.14, 16.76 0.25 C18.63 -0.63, 17.23 -0.25, 17.34 -0.02 M19.83 -0.35 C23.32 0, 27.72 3.81, 29.94 7.16 C32.15 10.51, 33.19 15.14, 33.1 19.74 C33.01 24.33, 31.69 31.12, 29.4 34.75 C27.1 38.38, 22.7 40.66, 19.34 41.51 C15.99 42.35, 12.19 41.95, 9.28 39.84 C6.36 37.73, 3.2 33.07, 1.86 28.87 C0.51 24.67, 0.12 19.05, 1.22 14.64 C2.32 10.22, 5.55 4.82, 8.48 2.38 C11.41 -0.07, 17.05 0.26, 18.8 -0.03 C20.55 -0.33, 19.02 0.13, 18.98 0.63" stroke="#1e1e1e" stroke-width="2" fill="none"></path></g><g transform="translate(195.98135527547856 845.1980437357669) rotate(0 4.343994140625 10)"><text x="4.343994140625" y="14.016" font-family="Virgil, Segoe UI Emoji" font-size="16px" fill="#1e1e1e" text-anchor="middle" style="white-space: pre;" direction="ltr" dominant-baseline="alphabetic">s</text></g><g stroke-linecap="round"><g transform="translate(175.52815507540612 770.3342522955437) rotate(0 -6.482696533203125 8.919235229492188)"><path d="M-0.24 -0.33 C-2.49 2.69, -11.33 15.32, -13.51 18.38 M0.64 0.69 C-1.45 3.55, -10.42 14.96, -12.56 17.69" stroke="#1e1e1e" stroke-width="2" fill="none"></path></g></g><mask></mask><g stroke-linecap="round"><g transform="translate(144.05162939243763 816.8980837658827) rotate(0 -5.01734320218074 6.727175818010394)"><path d="M-0.55 0.54 C-2.24 2.87, -8.86 11.5, -10.4 13.64 M0.17 0.34 C-1.32 2.53, -7.66 10.51, -9.35 12.77" stroke="#1e1e1e" stroke-width="2" fill="none"></path></g></g><mask></mask><g stroke-linecap="round"><g transform="translate(170.8605066371993 816.6221353799417) rotate(0 11.000534057617188 10.338180541992188)"><path d="M-0.79 0.41 C3.18 3.62, 18.9 17.12, 22.64 20.48 M0.99 -0.43 C4.97 3.49, 18.75 18.21, 22.02 21.91" stroke="#1e1e1e" stroke-width="2" fill="none"></path></g></g><mask></mask><g stroke-linecap="round"><g transform="translate(202.25017489788394 766.9438773272078) rotate(0 7.2144775390625 8.989654541015625)"><path d="M0.29 -0.09 C2.73 2.86, 11.97 14.93, 14.24 17.91 M-0.22 -0.61 C2.15 2.41, 11.18 15.42, 13.72 18.58" stroke="#1e1e1e" stroke-width="2" fill="none"></path></g></g><mask></mask><g stroke-linecap="round"><g transform="translate(240.28564326318968 816.1693227045005) rotate(0 9.847503662109375 11.717309659986483)"><path d="M-0.4 -0.14 C2.6 3.74, 15.14 19.12, 18.66 23.11 M1.58 -1.26 C4.89 2.82, 17.68 20.66, 20.83 24.48" stroke="#1e1e1e" stroke-width="2" fill="none"></path></g></g><mask></mask><g stroke-linecap="round" transform="translate(70.23515650142377 680.2744404390547) rotate(0 128.5647545717201 127.25189208984375)"><path d="M7.86 8.16 C7.86 8.16, 7.86 8.16, 7.86 8.16 M7.86 8.16 C7.86 8.16, 7.86 8.16, 7.86 8.16 M1.43 27.75 C6.21 22.46, 12.6 13.97, 24.4 1.33 M1.43 27.75 C7.35 22.81, 10.89 16.2, 24.4 1.33 M0.91 40.54 C12.19 24.98, 26.08 9.65, 36.34 -0.21 M0.91 40.54 C13.1 27.28, 25.37 13.69, 36.34 -0.21 M1.04 52.58 C14.04 36.69, 28.37 21.46, 46.97 -0.25 M1.04 52.58 C14.69 37.05, 28.64 20.85, 46.97 -0.25 M1.18 64.62 C16.24 47.93, 27.3 32.95, 57.6 -0.28 M1.18 64.62 C21.19 41.34, 40.17 19.02, 57.6 -0.28 M1.31 76.67 C20.26 56.65, 39.61 32.84, 67.57 0.44 M1.31 76.67 C25.36 49.45, 48.46 21.57, 67.57 0.44 M0.79 89.46 C23.81 60.62, 47.98 32.19, 78.2 0.41 M0.79 89.46 C28.45 56.75, 56.85 25.45, 78.2 0.41 M0.92 101.5 C23.95 76.02, 44.74 51.86, 88.83 0.37 M0.92 101.5 C23.45 74.77, 46.99 47.82, 88.83 0.37 M1.05 113.54 C38.81 70.66, 73.52 32.19, 99.46 0.34 M1.05 113.54 C38.89 69.31, 75.28 26.03, 99.46 0.34 M1.19 125.58 C37.7 86.53, 70.25 48.35, 110.09 0.3 M1.19 125.58 C24.02 96.84, 48.68 69.16, 110.09 0.3 M0.66 138.38 C46.38 86.73, 87 37.99, 120.72 0.27 M0.66 138.38 C39.08 95.31, 77.4 50.41, 120.72 0.27 M0.8 150.42 C28.42 118.95, 56.4 89.04, 131.35 0.23 M0.8 150.42 C36.72 108.72, 71.39 68.48, 131.35 0.23 M0.93 162.46 C33.15 124.4, 68.78 86.79, 141.98 0.2 M0.93 162.46 C53.8 99.39, 106.89 38.26, 141.98 0.2 M1.06 174.5 C59.74 108.43, 117.44 40.12, 152.61 0.16 M1.06 174.5 C38.13 132.38, 73 91.15, 152.61 0.16 M0.54 187.3 C40.75 139.8, 81.62 91.19, 163.24 0.13 M0.54 187.3 C38.88 142.13, 78.14 97.22, 163.24 0.13 M0.67 199.34 C53.71 137.28, 109.32 76.51, 173.87 0.09 M0.67 199.34 C56.63 133.41, 112.28 70.26, 173.87 0.09 M0.81 211.38 C46.08 158.53, 90.14 107.49, 184.5 0.06 M0.81 211.38 C53.47 151.69, 104.4 90.85, 184.5 0.06 M0.28 224.17 C67.22 150.05, 133.2 75.33, 195.13 0.03 M0.28 224.17 C65.35 150.02, 130.06 77.02, 195.13 0.03 M1.73 234.71 C46.37 183.08, 91.85 132.37, 205.76 -0.01 M1.73 234.71 C78.32 146.31, 155.71 56.03, 205.76 -0.01 M5.8 242.22 C59.17 180.37, 111.93 119.85, 216.39 -0.04 M5.8 242.22 C55.7 183.2, 106.19 125.07, 216.39 -0.04 M11.18 248.22 C79.68 169.45, 147.87 89.72, 226.37 0.68 M11.18 248.22 C75 174.5, 137.9 102.58, 226.37 0.68 M17.87 252.72 C90.05 167.82, 165.04 83.41, 236.34 1.4 M17.87 252.72 C71.33 190.58, 124.66 128.61, 236.34 1.4 M27.19 254.19 C86.41 185.86, 146.24 118.64, 243.69 5.14 M27.19 254.19 C84.88 186.06, 142.64 119.21, 243.69 5.14 M37.17 254.91 C99.89 181.66, 162.2 107.56, 250.39 9.63 M37.17 254.91 C105.63 178.79, 171.49 101.86, 250.39 9.63 M47.8 254.88 C121.9 169.22, 195.18 87.34, 254.46 17.14 M47.8 254.88 C99.17 195.95, 151.41 135.99, 254.46 17.14 M58.43 254.84 C120.21 181.12, 183.17 109.37, 257.21 26.16 M58.43 254.84 C99.36 209.59, 139.01 161.83, 257.21 26.16 M69.06 254.81 C141.83 170.73, 213.83 86.97, 257.35 38.21 M69.06 254.81 C120.79 194.8, 172.62 135.09, 257.35 38.21 M79.69 254.77 C122.1 206.64, 161.54 158.18, 257.48 50.25 M79.69 254.77 C127.81 197.55, 175.79 142.8, 257.48 50.25 M90.32 254.74 C151.46 183.15, 214.02 113.33, 257.61 62.29 M90.32 254.74 C132.41 204.27, 175.7 154.3, 257.61 62.29 M100.95 254.7 C153.97 193.52, 207.03 133.01, 257.09 75.08 M100.95 254.7 C139.27 208.83, 180.07 161.91, 257.09 75.08 M111.58 254.67 C149.67 212.64, 188.05 168.4, 257.22 87.12 M111.58 254.67 C143.01 218.71, 174.15 183.87, 257.22 87.12 M122.21 254.63 C151.32 222.03, 175.36 189.65, 257.36 99.16 M122.21 254.63 C161.64 207.36, 203.33 161.68, 257.36 99.16 M132.84 254.6 C179.11 201.09, 225.06 148.45, 257.49 111.21 M132.84 254.6 C164.88 218.41, 195.52 182.41, 257.49 111.21 M143.47 254.57 C170.17 226.58, 196.28 194.15, 257.62 123.25 M143.47 254.57 C179.79 213.57, 215.53 171.54, 257.62 123.25 M154.1 254.53 C190.59 213.45, 226.91 168.67, 257.1 136.04 M154.1 254.53 C192.33 210.2, 229.89 166.6, 257.1 136.04 M164.73 254.5 C193.08 221.64, 221.51 186.35, 257.23 148.08 M164.73 254.5 C185.81 229.59, 207.75 206.08, 257.23 148.08 M175.36 254.46 C196.23 228.59, 221.32 204.26, 257.36 160.12 M175.36 254.46 C194.81 232.81, 213.14 210.66, 257.36 160.12 M185.99 254.43 C211.11 224.7, 238.89 193.03, 257.5 172.16 M185.99 254.43 C210.57 225.76, 233.15 198.49, 257.5 172.16 M196.62 254.39 C213 232.31, 233.1 212.24, 257.63 184.21 M196.62 254.39 C210.28 237.2, 224.76 221.59, 257.63 184.21 M207.25 254.36 C218.66 240.17, 227.66 228.67, 257.11 197 M207.25 254.36 C224 233.66, 241.44 214.09, 257.11 197 M217.88 254.32 C233.71 235.56, 247.26 222.2, 257.24 209.04 M217.88 254.32 C227.84 242.6, 236.4 231.43, 257.24 209.04 M228.51 254.29 C236.95 245.11, 245.12 235.61, 257.37 221.08 M228.51 254.29 C238.64 243.32, 247.89 231.95, 257.37 221.08 M241.76 251.24 C244.55 248.9, 247.66 245.99, 255.54 235.39 M241.76 251.24 C245.56 248.58, 248.1 245.25, 255.54 235.39 M8.18 246.66 C8.18 246.66, 8.18 246.66, 8.18 246.66 M8.18 246.66 C8.18 246.66, 8.18 246.66, 8.18 246.66 M27.77 253.09 C21.27 248.11, 14.18 242.54, 1.36 230.13 M27.77 253.09 C20.19 246.59, 13.08 239.71, 1.36 230.13 M41.32 254.27 C30.59 243.9, 17.32 235.97, -0.19 218.19 M41.32 254.27 C28.23 242.83, 14.81 230.31, -0.19 218.19 M53.36 254.14 C35.36 237.88, 17.1 223.37, -0.22 207.56 M53.36 254.14 C37.56 240.15, 24.31 228.28, -0.22 207.56 M65.4 254 C39.11 234.18, 15.92 211.48, 0.5 197.58 M65.4 254 C52.4 242.99, 36.81 229.31, 0.5 197.58 M78.2 254.53 C55.16 233.97, 30.59 211.08, 0.46 186.95 M78.2 254.53 C59.64 239.83, 43.19 222.92, 0.46 186.95 M90.24 254.39 C72.02 237.22, 51.32 221.68, 0.43 176.32 M90.24 254.39 C66.88 233.23, 42.9 212.41, 0.43 176.32 M102.28 254.26 C79.92 234.99, 55.78 215.89, 0.39 165.69 M102.28 254.26 C62.09 218.94, 21.78 184.05, 0.39 165.69 M114.32 254.13 C81.92 226.97, 51.7 200.93, 0.36 155.06 M114.32 254.13 C75.24 220.87, 34.57 186.94, 0.36 155.06 M126.36 253.99 C91.03 224.48, 56.95 193.21, 0.32 144.43 M126.36 253.99 C95.28 227.1, 65.76 200.89, 0.32 144.43 M139.16 254.52 C89.93 212.61, 41.09 171.73, 0.29 133.8 M139.16 254.52 C111.17 231, 82.43 204.99, 0.29 133.8 M151.2 254.38 C110.83 221.84, 74.21 188.01, 0.26 123.17 M151.2 254.38 C101.35 209.7, 49.7 165.15, 0.26 123.17 M163.24 254.25 C115.91 214.39, 68.19 172.57, 0.22 112.54 M163.24 254.25 C123.07 218.88, 83.31 184.96, 0.22 112.54 M175.28 254.12 C107.99 196.43, 44.44 139.39, 0.19 101.91 M175.28 254.12 C132.24 217.2, 89.13 178.84, 0.19 101.91 M187.32 253.98 C139.79 213.03, 89.2 170.8, 0.15 91.28 M187.32 253.98 C127.06 202.69, 68.04 150.9, 0.15 91.28 M200.12 254.51 C160.88 219.48, 122.05 183.44, 0.12 80.65 M200.12 254.51 C142.5 205.84, 84.84 155.73, 0.12 80.65 M212.16 254.37 C145.57 197.13, 80.66 139.39, 0.84 70.68 M212.16 254.37 C137.54 186.91, 61.13 121.06, 0.84 70.68 M224.2 254.24 C153.81 194.98, 85.49 136.84, 0.8 60.05 M224.2 254.24 C148.62 189.4, 74.77 124.7, 0.8 60.05 M234.73 252.79 C140.81 174.77, 49.72 91.88, 0.77 49.42 M234.73 252.79 C155.39 184.97, 76.68 116.52, 0.77 49.42 M243 249.38 C182.35 197.91, 120.88 143.13, 0.73 38.79 M243 249.38 C190.27 202, 138.01 156.54, 0.73 38.79 M250.51 245.31 C166.91 172.42, 83.8 100.42, 0.7 28.16 M250.51 245.31 C179.49 180.29, 105.6 117.98, 0.7 28.16 M254.25 237.96 C153.15 153.68, 54.33 65.41, 2.17 18.84 M254.25 237.96 C170.97 164.75, 86.73 92.5, 2.17 18.84 M256.48 229.3 C195.14 175.07, 130.77 118.58, 5.91 11.49 M256.48 229.3 C174.68 159.41, 94.36 89.98, 5.91 11.49 M257.2 219.33 C188.92 160.24, 120.13 99.29, 11.16 5.45 M257.2 219.33 C198.1 168.81, 140.42 118.25, 11.16 5.45 M257.16 208.7 C169.71 131.34, 84.79 55.07, 18.67 1.38 M257.16 208.7 C163.75 128.91, 71.56 47.86, 18.67 1.38 M257.13 198.07 C203.84 150.05, 151.94 107.06, 29.21 -0.06 M257.13 198.07 C202.73 150.64, 149.85 103.96, 29.21 -0.06 M257.09 187.44 C175.95 117.83, 94.52 45.94, 41.25 -0.2 M257.09 187.44 C189.67 131.57, 123.75 74.23, 41.25 -0.2 M257.06 176.81 C178.55 107.97, 101.71 40.84, 53.29 -0.33 M257.06 176.81 C217.47 141.88, 175.25 106.33, 53.29 -0.33 M257.78 166.83 C204.24 119.78, 153 74.78, 65.33 -0.46 M257.78 166.83 C191.05 109.22, 123.69 49.68, 65.33 -0.46 M257.75 156.2 C214.88 117.19, 170.77 81, 78.12 0.06 M257.75 156.2 C190.23 97.98, 122.9 40.05, 78.12 0.06 M257.71 145.57 C196.39 92.63, 138.33 40.39, 90.17 -0.07 M257.71 145.57 C213.51 108.56, 170.92 71.29, 90.17 -0.07 M257.68 134.94 C210.14 90.59, 158.58 47.89, 102.21 -0.21 M257.68 134.94 C205.24 89.85, 153.51 44.79, 102.21 -0.21 M257.64 124.31 C201.22 76.16, 142.1 26.97, 114.25 -0.34 M257.64 124.31 C225.74 96.76, 194.87 68.93, 114.25 -0.34 M257.61 113.68 C215.58 78.09, 176.13 41.5, 126.29 -0.47 M257.61 113.68 C226.43 88.36, 196.82 61.08, 126.29 -0.47 M257.57 103.05 C225.49 75.73, 196.77 48.83, 139.08 0.05 M257.57 103.05 C221.41 72.7, 187.37 42.19, 139.08 0.05 M257.54 92.42 C226.79 62.69, 190.28 35.9, 151.12 -0.08 M257.54 92.42 C215.83 57.11, 175.35 21.47, 151.12 -0.08 M257.5 81.79 C229.72 59.19, 203.04 36.06, 163.17 -0.22 M257.5 81.79 C238.39 65.5, 218.37 48.09, 163.17 -0.22 M257.47 71.16 C225.08 42.74, 195.51 17.95, 175.21 -0.35 M257.47 71.16 C238.69 53.91, 218.5 37.27, 175.21 -0.35 M257.43 60.53 C235.65 39.79, 211.65 19.99, 187.25 -0.48 M257.43 60.53 C235.21 41.71, 213.96 22.17, 187.25 -0.48 M257.4 49.9 C232.67 28.92, 210.06 10.75, 200.04 0.04 M257.4 49.9 C243.57 37.96, 227.58 23.69, 200.04 0.04 M257.37 39.27 C242.65 26.6, 226.15 9.38, 212.08 -0.09 M257.37 39.27 C246.98 29.99, 235.94 20.09, 212.08 -0.09 M257.33 28.64 C251.14 23.59, 243.88 15.14, 224.12 -0.23 M257.33 28.64 C250.85 22.69, 243 17.34, 224.12 -0.23 M253.52 14.73 C246.89 11.2, 242.45 3.93, 238.43 1.61 M253.52 14.73 C248.17 10.62, 243.89 7.88, 238.43 1.61" stroke="#ffc9c9" stroke-width="1" fill="none"></path><path d="M32 0 C82.9 3.34, 135.49 2.34, 225.13 0 M225.13 0 C244.46 -1.85, 258.11 11.76, 257.13 32 M257.13 32 C256.26 82.63, 256.33 130.74, 257.13 222.5 M257.13 222.5 C257.52 244.25, 248.24 252.96, 225.13 254.5 M225.13 254.5 C146.18 252.84, 72.83 251.98, 32 254.5 M32 254.5 C10.47 255.97, 1.02 245.69, 0 222.5 M0 222.5 C0.45 159.15, -1.88 98.92, 0 32 M0 32 C-0.35 10.63, 9.7 1.85, 32 0" stroke="#1e1e1e" stroke-width="2.5" fill="none" stroke-dasharray="8 10"></path></g><g transform="translate(78.99125378524747 705.3273868237263) rotate(0 121.87499999999997 9.600000000000001)"><text x="121.875" y="15.45" font-family="Cascadia, Segoe UI Emoji" font-size="16px" fill="#1e1e1e" text-anchor="middle" style="white-space: pre;" direction="ltr" dominant-baseline="alphabetic">webserver runing artifacts</text></g><g transform="translate(87.05028609561316 531.3965176375588) rotate(0 416.01562499999994 12)"><text x="0" y="19.3125" font-family="Cascadia, Segoe UI Emoji" font-size="20px" fill="#1e1e1e" text-anchor="start" style="white-space: pre;" direction="ltr" dominant-baseline="alphabetic">3. chunk1.js corresponds to c1 component, same with chunk2 and chunk3. </text></g><g transform="translate(81.69777207447675 347.49127774567114) rotate(0 112.5 9.599999999999994)"><text x="0" y="15.45" font-family="Cascadia, Segoe UI Emoji" font-size="16px" fill="#1e1e1e" text-anchor="start" style="white-space: pre;" direction="ltr" dominant-baseline="alphabetic">s: server-side component</text></g><g transform="translate(81.22428485210713 370.9578258650491) rotate(0 112.5 9.599999999999994)"><text x="0" y="15.45" font-family="Cascadia, Segoe UI Emoji" font-size="16px" fill="#1e1e1e" text-anchor="start" style="white-space: pre;" direction="ltr" dominant-baseline="alphabetic">c: client-side component</text></g><g transform="translate(87.27511954481753 10) rotate(0 52.734375 21.600000000000023)"><text x="0" y="34.762499999999996" font-family="Cascadia, Segoe UI Emoji" font-size="36px" fill="#1e1e1e" text-anchor="start" style="white-space: pre;" direction="ltr" dominant-baseline="alphabetic">Build</text></g><g transform="translate(74.61483760038686 609.4055985094581) rotate(0 147.65625 21.599999999999998)"><text x="0" y="34.762499999999996" font-family="Cascadia, Segoe UI Emoji" font-size="36px" fill="#1e1e1e" text-anchor="start" style="white-space: pre;" direction="ltr" dominant-baseline="alphabetic">Server runtime</text></g><g stroke-linecap="round" transform="translate(640.5512003171173 775.6903369214331) rotate(0 138.2511467267417 22.027581936476338)"><path d="M11.01 0 C92.43 -5.15, 170.13 -4.74, 265.49 0 C272.27 3.43, 278.24 6.98, 276.5 11.01 C274.64 20.81, 273.19 29.5, 276.5 33.04 C278.36 37.01, 275.74 46.64, 265.49 44.06 C169.5 42.08, 70.44 41.85, 11.01 44.06 C7.25 43.09, 2.08 42.83, 0 33.04 C0.2 28.35, 0.32 20.91, 0 11.01 C-2.62 1.27, 4.91 -1.81, 11.01 0" stroke="none" stroke-width="0" fill="#eebefa"></path><path d="M11.01 0 C96.9 -1.3, 180.9 0.6, 265.49 0 M11.01 0 C96.96 1.36, 184.49 1.86, 265.49 0 M265.49 0 C274.22 -1.63, 276.96 4.37, 276.5 11.01 M265.49 0 C271.57 -0.71, 276.47 2.13, 276.5 11.01 M276.5 11.01 C276.46 16.7, 276.19 21.4, 276.5 33.04 M276.5 11.01 C277.42 17.89, 276.79 24.29, 276.5 33.04 M276.5 33.04 C274.69 39.74, 273.54 44.17, 265.49 44.06 M276.5 33.04 C276.06 38.42, 271.66 42.77, 265.49 44.06 M265.49 44.06 C180.38 43.27, 95.53 42.16, 11.01 44.06 M265.49 44.06 C201.9 45.63, 139.76 45.89, 11.01 44.06 M11.01 44.06 C1.83 45.95, 1.55 38.82, 0 33.04 M11.01 44.06 C1.9 44.69, -1.86 39.61, 0 33.04 M0 33.04 C0.73 28.54, -0.11 24.92, 0 11.01 M0 33.04 C-0.12 24.4, -0.85 16.29, 0 11.01 M0 11.01 C1.91 4.9, 2.81 0.43, 11.01 0 M0 11.01 C2.29 3.15, 1.39 1.36, 11.01 0" stroke="#1e1e1e" stroke-width="2" fill="none"></path></g><g transform="translate(647.552347043859 788.1179188579093) rotate(0 131.24999999999994 9.599999999999994)"><text x="131.25" y="15.45" font-family="Cascadia, Segoe UI Emoji" font-size="16px" fill="#1e1e1e" text-anchor="middle" style="white-space: pre;" direction="ltr" dominant-baseline="alphabetic">intermediate abstract format</text></g><g stroke-linecap="round"><g transform="translate(328.3646656448641 792.9579098200985) rotate(0 155.17410641915836 1.7740233262215952)"><path d="M-0.39 -1.05 C51.23 -0.3, 257.87 2.9, 309.69 3.87 M1.61 1.01 C53.63 1.44, 260.68 1.58, 312.06 1.91" stroke="#1e1e1e" stroke-width="2" fill="none"></path></g><g transform="translate(328.3646656448641 792.9579098200985) rotate(0 155.17410641915836 1.7740233262215952)"><path d="M288.54 10.38 C293.85 6.84, 303.15 5.73, 312.06 1.91 M288.54 10.38 C297.57 7.57, 307.61 4.47, 312.06 1.91" stroke="#1e1e1e" stroke-width="2" fill="none"></path></g><g transform="translate(328.3646656448641 792.9579098200985) rotate(0 155.17410641915836 1.7740233262215952)"><path d="M288.59 -6.72 C293.8 -5.16, 303.08 -1.17, 312.06 1.91 M288.59 -6.72 C297.47 -2.72, 307.5 0.98, 312.06 1.91" stroke="#1e1e1e" stroke-width="2" fill="none"></path></g></g><mask></mask><g transform="translate(347.17067965474814 772.783585480783) rotate(0 121.875 9.599999999999994)"><text x="0" y="15.45" font-family="Cascadia, Segoe UI Emoji" font-size="16px" fill="#1e1e1e" text-anchor="start" style="white-space: pre;" direction="ltr" dominant-baseline="alphabetic">react-client-manifest.json</text></g><g transform="translate(339.55376364301753 803.833632344013) rotate(0 126.5625 9.599999999999994)"><text x="0" y="15.45" font-family="Cascadia, Segoe UI Emoji" font-size="16px" fill="#1e1e1e" text-anchor="start" style="white-space: pre;" direction="ltr" dominant-baseline="alphabetic"> renderToPipeableStream API</text></g><g stroke-linecap="round" transform="translate(1344.773936870065 777.10639282617) rotate(0 98.59221229071443 27.89438224086399)"><path d="M13.95 0 C62.27 -4.71, 116.9 -2.36, 183.24 0 C195.51 1.48, 199.27 3.32, 197.18 13.95 C198.8 22.02, 194.77 31.35, 197.18 41.84 C194.82 48.78, 189.75 55.3, 183.24 55.79 C121.33 55.91, 65.26 55.87, 13.95 55.79 C5.17 58.48, -1.49 50.93, 0 41.84 C-3 34.65, -3.12 23.62, 0 13.95 C2.92 6.27, 3.05 3.27, 13.95 0" stroke="none" stroke-width="0" fill="#eebefa"></path><path d="M13.95 0 C65.94 0.16, 116.91 -0.78, 183.24 0 M13.95 0 C53.84 1.83, 92.77 1.82, 183.24 0 M183.24 0 C193.01 -1.69, 198.22 3.37, 197.18 13.95 M183.24 0 C194.69 1.95, 198.96 5.98, 197.18 13.95 M197.18 13.95 C196.68 21.2, 198.36 30.27, 197.18 41.84 M197.18 13.95 C197.37 24.92, 197.15 36.92, 197.18 41.84 M197.18 41.84 C198.81 52.72, 192.23 55.21, 183.24 55.79 M197.18 41.84 C198.89 52.79, 192.97 56.13, 183.24 55.79 M183.24 55.79 C121.14 56.02, 57.03 53.9, 13.95 55.79 M183.24 55.79 C118.04 56.36, 52.19 56.01, 13.95 55.79 M13.95 55.79 C5.21 55.96, -1.64 52.09, 0 41.84 M13.95 55.79 C6.32 56.51, -1.57 51.12, 0 41.84 M0 41.84 C0.36 31.03, -0.75 22.13, 0 13.95 M0 41.84 C-0.67 36.33, 0.4 28.89, 0 13.95 M0 13.95 C0.81 5.99, 2.77 -1.86, 13.95 0 M0 13.95 C-0.85 5.51, 5.92 -0.64, 13.95 0" stroke="#1e1e1e" stroke-width="2" fill="none"></path></g><g transform="translate(1424.6161491607795 795.400775067034) rotate(0 18.75 9.599999999999994)"><text x="18.75" y="15.45" font-family="Cascadia, Segoe UI Emoji" font-size="16px" fill="#1e1e1e" text-anchor="middle" style="white-space: pre;" direction="ltr" dominant-baseline="alphabetic">html</text></g><g stroke-linecap="round"><g transform="translate(920.4046631878218 800.8189449128413) rotate(0 211.68463684112157 1.6460853472698886)"><path d="M0.76 0.66 C71.49 0.88, 352.66 2.01, 423.13 2.44 M-0.29 -0.04 C70.35 0.82, 351.52 2.77, 422.06 3.54" stroke="#1e1e1e" stroke-width="2" fill="none"></path></g><g transform="translate(920.4046631878218 800.8189449128413) rotate(0 211.68463684112157 1.6460853472698886)"><path d="M398.49 11.88 C404.24 9.66, 406.45 8.72, 422.06 3.54 M398.49 11.88 C405.89 9.58, 411.71 6.17, 422.06 3.54" stroke="#1e1e1e" stroke-width="2" fill="none"></path></g><g transform="translate(920.4046631878218 800.8189449128413) rotate(0 211.68463684112157 1.6460853472698886)"><path d="M398.64 -5.22 C404.52 -4.01, 406.7 -1.53, 422.06 3.54 M398.64 -5.22 C405.98 -2.42, 411.75 -0.73, 422.06 3.54" stroke="#1e1e1e" stroke-width="2" fill="none"></path></g></g><mask></mask><g transform="translate(1002.90961623979 772.7359722354622) rotate(0 107.8125 9.599999999999994)"><text x="0" y="15.45" font-family="Cascadia, Segoe UI Emoji" font-size="16px" fill="#1e1e1e" text-anchor="start" style="white-space: pre;" direction="ltr" dominant-baseline="alphabetic">react-ssr-manifest.json</text></g><g transform="translate(71.64483737237907 1184.3324866288563) rotate(0 147.65624999999997 21.600000000000023)"><text x="0" y="34.762499999999996" font-family="Cascadia, Segoe UI Emoji" font-size="36px" fill="#1e1e1e" text-anchor="start" style="white-space: pre;" direction="ltr" dominant-baseline="alphabetic">Client runtime</text></g><g stroke-linecap="round" transform="translate(123.3176123309122 1396.4482760708274) rotate(0 95.13359235681057 34.5)"><path d="M113 -0.11 C126.13 0.54, 141.63 4.52, 152.85 7.51 C164.08 10.5, 174.29 13.54, 180.36 17.83 C186.42 22.11, 188.79 28.01, 189.24 33.22 C189.7 38.42, 188.64 44.41, 183.1 49.04 C177.56 53.67, 166.46 57.75, 156 61.01 C145.54 64.28, 133.66 67.4, 120.35 68.64 C107.03 69.88, 89.91 69.7, 76.1 68.46 C62.29 67.23, 48.25 64.19, 37.48 61.22 C26.7 58.24, 17.62 54.82, 11.47 50.6 C5.31 46.37, 1.16 40.94, 0.53 35.88 C-0.1 30.82, 2.06 24.72, 7.68 20.24 C13.3 15.76, 23.8 12.07, 34.26 9.01 C44.72 5.95, 56.76 3.13, 70.44 1.89 C84.13 0.65, 108.01 1.57, 116.37 1.57 C124.74 1.58, 121.01 1.53, 120.64 1.9 M122.17 1.83 C134.99 2.64, 147.87 4.51, 158.13 7.91 C168.4 11.31, 178.3 17.54, 183.77 22.22 C189.24 26.89, 191.85 31, 190.93 35.98 C190.01 40.96, 185.13 47.76, 178.24 52.1 C171.35 56.44, 160.65 59.44, 149.61 62.02 C138.57 64.6, 125.34 66.78, 111.99 67.56 C98.63 68.34, 82.81 67.95, 69.48 66.68 C56.16 65.42, 42.62 63.1, 32.04 59.97 C21.46 56.85, 11.36 52.27, 6.01 47.92 C0.65 43.57, -1.2 38.88, -0.1 33.87 C1.01 28.85, 5.88 22.62, 12.66 17.84 C19.44 13.07, 29.52 8.12, 40.57 5.22 C51.62 2.32, 65.47 1.17, 78.97 0.43 C92.47 -0.31, 114.79 0.56, 121.56 0.79 C128.32 1.02, 120.25 1.01, 119.53 1.82" stroke="#1e1e1e" stroke-width="2" fill="none"></path></g><g transform="translate(157.74409641358528 1411.8530921198917) rotate(0 60.9375 19.19999999999999)"><text x="60.9375" y="15.45" font-family="Cascadia, Segoe UI Emoji" font-size="16px" fill="#1e1e1e" text-anchor="middle" style="white-space: pre;" direction="ltr" dominant-baseline="alphabetic">inital setup </text><text x="60.9375" y="34.65" font-family="Cascadia, Segoe UI Emoji" font-size="16px" fill="#1e1e1e" text-anchor="middle" style="white-space: pre;" direction="ltr" dominant-baseline="alphabetic">or update</text></g><g mask="url(#mask-KiFOKTw3xom2BVmb_z0vM)" stroke-linecap="round"><g transform="translate(790.8742608715881 825.0939593760424) rotate(0 1.8534146195315202 288.8190390001927)"><path d="M0.66 0.31 C1.24 96.63, 3.69 480.49, 4.04 576.8 M-0.46 -0.57 C-0.05 95.98, 2.33 481.78, 3.27 577.9" stroke="#1e1e1e" stroke-width="2" fill="none"></path></g><g transform="translate(790.8742608715881 825.0939593760424) rotate(0 1.8534146195315202 288.8190390001927)"><path d="M-5.46 554.47 C-2.14 563.1, -1.03 569.12, 3.27 577.9 M-5.46 554.47 C-2.89 562.86, 0.22 570.54, 3.27 577.9" stroke="#1e1e1e" stroke-width="2" fill="none"></path></g><g transform="translate(790.8742608715881 825.0939593760424) rotate(0 1.8534146195315202 288.8190390001927)"><path d="M11.64 554.34 C9.03 563.11, 4.21 569.17, 3.27 577.9 M11.64 554.34 C8.3 562.61, 5.5 570.34, 3.27 577.9" stroke="#1e1e1e" stroke-width="2" fill="none"></path></g></g><mask id="mask-KiFOKTw3xom2BVmb_z0vM"><rect x="0" y="0" fill="#fff" width="894.5810901106512" height="1502.7320373764278"></rect><rect x="755.2276754911197" y="1104.312998376235" fill="#000" width="75" height="19.2" opacity="1"></rect></mask><g transform="translate(755.2276754911198 1104.312998376235) rotate(0 37.43909790366416 9.443400489846283)"><text x="37.5" y="15.45" font-family="Cascadia, Segoe UI Emoji" font-size="16px" fill="#1e1e1e" text-anchor="middle" style="white-space: pre;" direction="ltr" dominant-baseline="alphabetic">response</text></g><g stroke-linecap="round" transform="translate(611.0415823889853 1411.8859471864994) rotate(0 111.74545881718791 31.665788015103203)"><path d="M15.83 0 C87.33 -1.59, 160.26 0.1, 207.66 0 M15.83 0 C67.09 -1.49, 118.2 -0.06, 207.66 0 M207.66 0 C216.99 -1.16, 223.77 6.44, 223.49 15.83 M207.66 0 C217.42 0.11, 225.11 5.59, 223.49 15.83 M223.49 15.83 C223.71 24.57, 222.4 33.12, 223.49 47.5 M223.49 15.83 C223.13 25.66, 224 34.51, 223.49 47.5 M223.49 47.5 C221.88 59.75, 217.32 65.08, 207.66 63.33 M223.49 47.5 C221.41 56.59, 219.84 63.86, 207.66 63.33 M207.66 63.33 C131.59 62.33, 56.26 64.8, 15.83 63.33 M207.66 63.33 C157.89 62.67, 108.83 64.17, 15.83 63.33 M15.83 63.33 C6.13 61.55, 0.06 58.41, 0 47.5 M15.83 63.33 C5.32 65.6, 0.23 56.56, 0 47.5 M0 47.5 C-0.27 37.21, 0.12 30.86, 0 15.83 M0 47.5 C1.01 40.68, -0.58 32.36, 0 15.83 M0 15.83 C0.01 3.44, 3.29 1.66, 15.83 0 M0 15.83 C-0.11 5.61, 5.37 -2.16, 15.83 0" stroke="#1e1e1e" stroke-width="2" fill="none"></path></g><g transform="translate(624.3495412061732 1433.9517352016028) rotate(0 98.4375 9.600000000000023)"><text x="98.4375" y="15.45" font-family="Cascadia, Segoe UI Emoji" font-size="16px" fill="#1e1e1e" text-anchor="middle" style="white-space: pre;" direction="ltr" dominant-baseline="alphabetic">render with `use` API</text></g><g stroke-linecap="round" transform="translate(1322.480791663211 1396.5664563390087) rotate(0 131.98245944568725 37.00137854534779)"><path d="M18.5 0 C84.05 -2.69, 147.72 -0.55, 245.46 0 M18.5 0 C101.68 -0.73, 185.89 -0.22, 245.46 0 M245.46 0 C257.7 -1.75, 264.18 5.95, 263.96 18.5 M245.46 0 C257.69 1.39, 266.24 4.28, 263.96 18.5 M263.96 18.5 C263.05 29.26, 263.15 43.74, 263.96 55.5 M263.96 18.5 C264.79 31.75, 263.17 43.93, 263.96 55.5 M263.96 55.5 C265.07 66.18, 258.37 72.96, 245.46 74 M263.96 55.5 C264.74 69.43, 258.95 72.24, 245.46 74 M245.46 74 C197.9 74.58, 150.07 73.67, 18.5 74 M245.46 74 C197.14 73.47, 149.12 72.49, 18.5 74 M18.5 74 C5.22 74.03, 0.17 68.2, 0 55.5 M18.5 74 C6.82 72.01, 1.15 68.94, 0 55.5 M0 55.5 C-1.68 42.48, -2.16 28.88, 0 18.5 M0 55.5 C0.07 43.38, -0.47 31.22, 0 18.5 M0 18.5 C-0.94 8.14, 7.8 -1.56, 18.5 0 M0 18.5 C-1.91 7.54, 5.89 1.38, 18.5 0" stroke="#1e1e1e" stroke-width="2" fill="none"></path></g><g transform="translate(1374.7757511088982 1423.9678348843568) rotate(0 79.6875 9.600000000000023)"><text x="79.6875" y="15.45" font-family="Cascadia, Segoe UI Emoji" font-size="16px" fill="#1e1e1e" text-anchor="middle" style="white-space: pre;" direction="ltr" dominant-baseline="alphabetic">render by browser</text></g><g mask="url(#mask-cflcpEWPlwVVCR_nrTvjz)" stroke-linecap="round"><g transform="translate(1438.880125186396 840.2394176716524) rotate(0 2.156851459282734 277.5728372477583)"><path d="M0.83 -0.2 C1.39 92.43, 4.03 462.57, 4.55 555.11 M-0.19 -1.35 C0.12 91.54, 3.2 463.69, 3.72 556.62" stroke="#1e1e1e" stroke-width="2" fill="none"></path></g><g transform="translate(1438.880125186396 840.2394176716524) rotate(0 2.156851459282734 277.5728372477583)"><path d="M-5 533.19 C-1.97 542.89, 1.78 551.21, 3.72 556.62 M-5 533.19 C-1.81 539.28, 0.53 546.49, 3.72 556.62" stroke="#1e1e1e" stroke-width="2" fill="none"></path></g><g transform="translate(1438.880125186396 840.2394176716524) rotate(0 2.156851459282734 277.5728372477583)"><path d="M12.1 533.07 C8.29 542.93, 5.2 551.31, 3.72 556.62 M12.1 533.07 C10.38 539.26, 7.81 546.51, 3.72 556.62" stroke="#1e1e1e" stroke-width="2" fill="none"></path></g></g><mask id="mask-cflcpEWPlwVVCR_nrTvjz"><rect x="0" y="0" fill="#fff" width="1543.1938281049615" height="1495.385092167169"></rect><rect x="1403.5369766456788" y="1108.2122549194105" fill="#000" width="75" height="19.2" opacity="1"></rect></mask><g transform="translate(1403.5369766456788 1108.2122549194105) rotate(0 37.51928046563171 9.665717301042832)"><text x="37.5" y="15.45" font-family="Cascadia, Segoe UI Emoji" font-size="16px" fill="#1e1e1e" text-anchor="middle" style="white-space: pre;" direction="ltr" dominant-baseline="alphabetic">response</text></g><g stroke-linecap="round"><g transform="translate(845.3778667265319 1441.6899751555877) rotate(0 37.58924408727262 -0.5465675181259257)"><path d="M-0.58 -0.48 C11.81 -0.53, 61.72 -1.32, 74.38 -1.5 M1.31 -1.78 C14.08 -1.56, 64.44 -0.39, 76.68 -0.17" stroke="#1e1e1e" stroke-width="2" fill="none"></path></g><g transform="translate(845.3778667265319 1441.6899751555877) rotate(0 37.58924408727262 -0.5465675181259257)"><path d="M53.01 7.88 C59.46 4.23, 66.76 3.44, 76.68 -0.17 M53.01 7.88 C59.49 5.62, 65.44 4.25, 76.68 -0.17" stroke="#1e1e1e" stroke-width="2" fill="none"></path></g><g transform="translate(845.3778667265319 1441.6899751555877) rotate(0 37.58924408727262 -0.5465675181259257)"><path d="M53.37 -9.21 C59.55 -7.69, 66.73 -3.3, 76.68 -0.17 M53.37 -9.21 C59.65 -6.97, 65.51 -3.83, 76.68 -0.17" stroke="#1e1e1e" stroke-width="2" fill="none"></path></g></g><mask></mask><g stroke-linecap="round" transform="translate(923.2477387221566 1417.2854380586273) rotate(0 79.27180676906175 26.547159389461967)"><path d="M13.27 0 C57.51 -2.7, 104.68 -2.51, 145.27 0 M13.27 0 C58.32 -1.33, 105.13 -1.53, 145.27 0 M145.27 0 C155.96 -1.98, 160.51 3.68, 158.54 13.27 M145.27 0 C155.8 -0.61, 159.58 6.11, 158.54 13.27 M158.54 13.27 C157.22 18.98, 160.17 26.67, 158.54 39.82 M158.54 13.27 C159.06 19.56, 158.97 24.07, 158.54 39.82 M158.54 39.82 C158.88 49.48, 153.1 52.53, 145.27 53.09 M158.54 39.82 C158.69 47.1, 156.29 54.48, 145.27 53.09 M145.27 53.09 C117 53.09, 85.12 52.33, 13.27 53.09 M145.27 53.09 C103.04 52.53, 58 52.21, 13.27 53.09 M13.27 53.09 C3.58 51.93, -1.88 49.4, 0 39.82 M13.27 53.09 C3.34 52.64, -1.99 48.25, 0 39.82 M0 39.82 C1.97 34.12, -0.23 27.53, 0 13.27 M0 39.82 C0.62 32.87, 0.72 27.98, 0 13.27 M0 13.27 C0.71 3.6, 4.5 0.96, 13.27 0 M0 13.27 C0.12 2.24, 4.35 1.75, 13.27 0" stroke="#1e1e1e" stroke-width="2" fill="none"></path></g><g transform="translate(950.9570454912184 1434.232597448089) rotate(0 51.5625 9.600000000000023)"><text x="51.5625" y="15.45" font-family="Cascadia, Segoe UI Emoji" font-size="16px" fill="#1e1e1e" text-anchor="middle" style="white-space: pre;" direction="ltr" dominant-baseline="alphabetic">virtual DOM</text></g><g stroke-linecap="round" transform="translate(1150.658845512365 1416.0065510509655) rotate(0 54.7753114503505 25.67037804556503)"><path d="M12.84 0 C31.68 -1.21, 48.29 1.63, 96.72 0 M12.84 0 C38.72 -0.15, 64.91 1.27, 96.72 0 M96.72 0 C105.88 -1.42, 109.15 4.08, 109.55 12.84 M96.72 0 C104.13 -0.16, 107.83 2.04, 109.55 12.84 M109.55 12.84 C109.74 20.77, 111.37 27.47, 109.55 38.51 M109.55 12.84 C109.7 21.12, 110.62 27.8, 109.55 38.51 M109.55 38.51 C108.11 45.09, 104.53 52.62, 96.72 51.34 M109.55 38.51 C107.72 48.68, 106.5 53.38, 96.72 51.34 M96.72 51.34 C75.94 50.87, 56.15 50.42, 12.84 51.34 M96.72 51.34 C70.01 51.65, 41.4 50.52, 12.84 51.34 M12.84 51.34 C3.41 52.88, 0.04 45.32, 0 38.51 M12.84 51.34 C3.6 53.34, 1.19 47.11, 0 38.51 M0 38.51 C-1.52 29.91, 0.33 22.22, 0 12.84 M0 38.51 C-0.88 31.33, 0.8 23.1, 0 12.84 M0 12.84 C0.44 2.34, 5.51 0.46, 12.84 0 M0 12.84 C1.8 2.26, 5.83 0.92, 12.84 0" stroke="#1e1e1e" stroke-width="2" fill="none"></path></g><g transform="translate(1191.3716569627154 1432.0769290965304) rotate(0 14.0625 9.600000000000023)"><text x="14.0625" y="15.45" font-family="Cascadia, Segoe UI Emoji" font-size="16px" fill="#1e1e1e" text-anchor="middle" style="white-space: pre;" direction="ltr" dominant-baseline="alphabetic">DOM</text></g><g stroke-linecap="round"><g transform="translate(1090.2769831977653 1443.6114987444935) rotate(0 30.8177002131539 0.5685898189605041)"><path d="M-0.92 0.4 C9.42 0.3, 51.56 0.32, 61.92 0.48 M0.8 -0.43 C11.02 0.13, 51.21 1.13, 61.12 1.68" stroke="#1e1e1e" stroke-width="2" fill="none"></path></g><g transform="translate(1090.2769831977653 1443.6114987444935) rotate(0 30.8177002131539 0.5685898189605041)"><path d="M37.32 9.32 C44.77 7.77, 49.87 4.45, 61.12 1.68 M37.32 9.32 C44.29 6.92, 52.44 3.43, 61.12 1.68" stroke="#1e1e1e" stroke-width="2" fill="none"></path></g><g transform="translate(1090.2769831977653 1443.6114987444935) rotate(0 30.8177002131539 0.5685898189605041)"><path d="M37.97 -7.77 C45.39 -4.4, 50.3 -2.8, 61.12 1.68 M37.97 -7.77 C44.58 -4.67, 52.53 -2.67, 61.12 1.68" stroke="#1e1e1e" stroke-width="2" fill="none"></path></g></g><mask></mask><g stroke-linecap="round"><g transform="translate(1265.361983583645 1441.6326018469993) rotate(0 26.156363910176538 0.592894142598368)"><path d="M0.73 0.38 C9.46 0.47, 43.88 0.67, 52.57 0.94 M-0.35 -0.46 C8.24 -0.23, 42.97 2.25, 51.76 2.35" stroke="#1e1e1e" stroke-width="2" fill="none"></path></g><g transform="translate(1265.361983583645 1441.6326018469993) rotate(0 26.156363910176538 0.592894142598368)"><path d="M27.91 9.84 C35.95 7.79, 42.33 5.94, 51.76 2.35 M27.91 9.84 C36.37 7.49, 46.43 3.79, 51.76 2.35" stroke="#1e1e1e" stroke-width="2" fill="none"></path></g><g transform="translate(1265.361983583645 1441.6326018469993) rotate(0 26.156363910176538 0.592894142598368)"><path d="M28.67 -7.25 C36.54 -3.97, 42.68 -0.49, 51.76 2.35 M28.67 -7.25 C36.93 -3.28, 46.7 -0.68, 51.76 2.35" stroke="#1e1e1e" stroke-width="2" fill="none"></path></g></g><mask></mask><g stroke-linecap="round" transform="translate(28.55228915749467 1183.4216058924067) rotate(0 785.8433458884376 178.36944275187471)"><path d="M32 0 C540.58 4.91, 1049.07 5.12, 1539.69 0 M1539.69 0 C1559.3 0.05, 1571.09 11.57, 1571.69 32 M1571.69 32 C1571.44 116.46, 1572.45 203.66, 1571.69 324.74 M1571.69 324.74 C1570.07 346.6, 1561.24 355.99, 1539.69 356.74 M1539.69 356.74 C1221.42 354.26, 902.22 354.56, 32 356.74 M32 356.74 C11.03 356.31, -1.29 347.65, 0 324.74 M0 324.74 C-0.57 221.67, 1.69 119.11, 0 32 M0 32 C1.62 9.97, 9.05 -1.63, 32 0" stroke="#1e1e1e" stroke-width="2.5" fill="none" stroke-dasharray="8 10"></path></g><g transform="translate(1354.6188338570619 734.4465705578311) rotate(0 84.375 9.599999999999994)"><text x="0" y="15.45" font-family="Cascadia, Segoe UI Emoji" font-size="16px" fill="#1e1e1e" text-anchor="start" style="white-space: pre;" direction="ltr" dominant-baseline="alphabetic">server side render</text></g><g transform="translate(659.0252370468647 730.9464205294807) rotate(0 84.375 9.599999999999994)"><text x="0" y="15.45" font-family="Cascadia, Segoe UI Emoji" font-size="16px" fill="#1e1e1e" text-anchor="start" style="white-space: pre;" direction="ltr" dominant-baseline="alphabetic">client side render</text></g><g transform="translate(41.65268069282297 1571.2672832646085) rotate(0 779.296875 60.00000000000006)"><text x="0" y="19.3125" font-family="Cascadia, Segoe UI Emoji" font-size="20px" fill="#1e1e1e" text-anchor="start" style="white-space: pre;" direction="ltr" dominant-baseline="alphabetic">1. The determination whether client side render or server side render denpends on the different route, routes for page fits to apply </text><text x="0" y="43.3125" font-family="Cascadia, Segoe UI Emoji" font-size="20px" fill="#1e1e1e" text-anchor="start" style="white-space: pre;" direction="ltr" dominant-baseline="alphabetic">   server side render, routes for update fits to use client side render.</text><text x="0" y="67.3125" font-family="Cascadia, Segoe UI Emoji" font-size="20px" fill="#1e1e1e" text-anchor="start" style="white-space: pre;" direction="ltr" dominant-baseline="alphabetic"></text><text x="0" y="91.3125" font-family="Cascadia, Segoe UI Emoji" font-size="20px" fill="#1e1e1e" text-anchor="start" style="white-space: pre;" direction="ltr" dominant-baseline="alphabetic">2. The `use` API would take the intermediate abstract of whole Application, the found of granular updated component leaves to React. </text><text x="0" y="115.3125" font-family="Cascadia, Segoe UI Emoji" font-size="20px" fill="#1e1e1e" text-anchor="start" style="white-space: pre;" direction="ltr" dominant-baseline="alphabetic">   Perhaps the intermediate abstract would highlight it using some kind of marks.  </text></g><g stroke-linecap="round" transform="translate(558.2698287326114 939.637736391742) rotate(0 74.57053342851384 24.5)"><path d="M12.25 0 C42.65 4.72, 75.32 0.79, 136.89 0 C146.93 -0.04, 146.92 2.28, 149.14 12.25 C151.04 20.93, 146.26 28.17, 149.14 36.75 C145.74 44.17, 146.87 46.84, 136.89 49 C97.21 50.18, 56.12 48.15, 12.25 49 C7.17 49.29, -2.63 44.27, 0 36.75 C3.69 32.97, 0.6 22.52, 0 12.25 C-2.43 0.58, 2.16 -3.42, 12.25 0" stroke="none" stroke-width="0" fill="#b2f2bb"></path><path d="M12.25 0 C54.61 -2.17, 99.63 -2.19, 136.89 0 M12.25 0 C45.98 0.74, 79.87 -0.43, 136.89 0 M136.89 0 C145.68 0.14, 147.99 3.15, 149.14 12.25 M136.89 0 C147.2 -0.58, 148.83 5.83, 149.14 12.25 M149.14 12.25 C149.62 20.17, 150.02 25.43, 149.14 36.75 M149.14 12.25 C150.16 17.66, 148.51 23.35, 149.14 36.75 M149.14 36.75 C148.82 44.42, 145.32 48.73, 136.89 49 M149.14 36.75 C148.08 46.8, 146.09 46.93, 136.89 49 M136.89 49 C89.25 50.06, 36.48 48.82, 12.25 49 M136.89 49 C90.34 47.32, 42.74 48.07, 12.25 49 M12.25 49 C3.55 49.22, -0.2 45.21, 0 36.75 M12.25 49 C4.73 47.5, 2.1 43.35, 0 36.75 M0 36.75 C-0.91 27.17, -1.57 21.49, 0 12.25 M0 36.75 C-0.37 28.19, -0.94 18.07, 0 12.25 M0 12.25 C-1.26 2.48, 2.74 1.54, 12.25 0 M0 12.25 C0.91 3.19, 5.4 -1.97, 12.25 0" stroke="#1e1e1e" stroke-width="2" fill="none"></path></g><g transform="translate(571.9028621611253 954.5377363917421) rotate(0 60.9375 9.599999999999994)"><text x="60.9375" y="15.45" font-family="Cascadia, Segoe UI Emoji" font-size="16px" fill="#1e1e1e" text-anchor="middle" style="white-space: pre;" direction="ltr" dominant-baseline="alphabetic">chunk2.js(c2)</text></g><g stroke-linecap="round" transform="translate(400.87399721225074 1019.8783967105003) rotate(0 72.57342965819817 24.5)"><path d="M12.25 0 C59.57 0.66, 100.92 -1.1, 132.9 0 C139.75 1.71, 144.57 5.77, 145.15 12.25 C141.37 20.36, 146.58 27.82, 145.15 36.75 C146.29 46.3, 143.48 50.66, 132.9 49 C100.88 47.87, 60.06 46.93, 12.25 49 C1.68 47.83, 1.98 48.47, 0 36.75 C-2.49 24.58, -1.98 15.99, 0 12.25 C3.29 1.43, 5.23 2.5, 12.25 0" stroke="none" stroke-width="0" fill="#b2f2bb"></path><path d="M12.25 0 C37.52 0.48, 64.2 1.4, 132.9 0 M12.25 0 C58.94 0.47, 104.43 -0.07, 132.9 0 M132.9 0 C142.93 -0.5, 144.87 5.6, 145.15 12.25 M132.9 0 C141.16 -1.9, 147.19 4.87, 145.15 12.25 M145.15 12.25 C143.64 21.56, 147.19 29.79, 145.15 36.75 M145.15 12.25 C144.79 19.54, 145.08 27.2, 145.15 36.75 M145.15 36.75 C144.23 46.56, 141.96 47.2, 132.9 49 M145.15 36.75 C147.35 44.47, 140.41 50.96, 132.9 49 M132.9 49 C89.7 51.07, 41.79 49.73, 12.25 49 M132.9 49 C104.12 49.25, 75.77 49.29, 12.25 49 M12.25 49 C4.65 47.7, 1.83 43.55, 0 36.75 M12.25 49 C5.22 49.79, -1.84 43.96, 0 36.75 M0 36.75 C1.82 32.63, -1.49 24.28, 0 12.25 M0 36.75 C-0.46 26.64, -0.5 18.91, 0 12.25 M0 12.25 C0.79 3.31, 5.23 -1.71, 12.25 0 M0 12.25 C-1.2 3, 2.08 -0.32, 12.25 0" stroke="#1e1e1e" stroke-width="2" fill="none"></path></g><g transform="translate(412.5099268704489 1034.7783967105004) rotate(0 60.9375 9.599999999999994)"><text x="60.9375" y="15.45" font-family="Cascadia, Segoe UI Emoji" font-size="16px" fill="#1e1e1e" text-anchor="middle" style="white-space: pre;" direction="ltr" dominant-baseline="alphabetic">chunk3.js(c3)</text></g><g stroke-linecap="round" transform="translate(398.50508326502336 941.9369226300321) rotate(0 67.9092285865064 24.5)"><path d="M12.25 0 C49 -1.05, 89.57 2.63, 123.57 0 C128.27 3.47, 137.17 3.41, 135.82 12.25 C134.12 21.33, 137.09 26.96, 135.82 36.75 C133.05 46.73, 128.95 50.02, 123.57 49 C87.75 53.23, 52.99 54.38, 12.25 49 C7.45 46.89, 2.71 44.83, 0 36.75 C1.75 33.04, 0.06 25.55, 0 12.25 C1.63 4.69, 5.31 -3.47, 12.25 0" stroke="none" stroke-width="0" fill="#b2f2bb"></path><path d="M12.25 0 C56.09 -1.98, 98.72 0.01, 123.57 0 M12.25 0 C53.83 1.17, 95.39 -0.34, 123.57 0 M123.57 0 C131.89 0.95, 136.07 2.78, 135.82 12.25 M123.57 0 C130.2 -0.74, 134.09 3.11, 135.82 12.25 M135.82 12.25 C135.96 18.55, 133.94 29.12, 135.82 36.75 M135.82 12.25 C135 20.83, 134.88 30.8, 135.82 36.75 M135.82 36.75 C136.38 44.06, 129.93 50.49, 123.57 49 M135.82 36.75 C136.92 47.18, 131.57 49.48, 123.57 49 M123.57 49 C82.45 50.14, 43.07 48.11, 12.25 49 M123.57 49 C98.11 49.06, 71.09 49.04, 12.25 49 M12.25 49 C4.62 48.84, 0.57 42.92, 0 36.75 M12.25 49 C2.93 49.28, -0.69 44.2, 0 36.75 M0 36.75 C-0.11 29.47, 0.73 26.04, 0 12.25 M0 36.75 C0.2 26.18, 0.98 18.24, 0 12.25 M0 12.25 C1.01 2.47, 6.04 1.02, 12.25 0 M0 12.25 C-0.1 3.48, 3.7 1.12, 12.25 0" stroke="#1e1e1e" stroke-width="2" fill="none"></path></g><g transform="translate(405.47681185152976 956.8369226300321) rotate(0 60.9375 9.599999999999994)"><text x="60.9375" y="15.45" font-family="Cascadia, Segoe UI Emoji" font-size="16px" fill="#1e1e1e" text-anchor="middle" style="white-space: pre;" direction="ltr" dominant-baseline="alphabetic">chunk1.js(c1)</text></g><g stroke-linecap="round" transform="translate(377.02075386428305 866.8195758089335) rotate(0 171.86675824996837 111.59364126797618)"><path d="M32 0 C130.59 -2.73, 227.63 -2.19, 311.73 0 M311.73 0 C331.18 -1.36, 345.25 8.68, 343.73 32 M343.73 32 C346.78 67.97, 344.22 105.55, 343.73 191.19 M343.73 191.19 C345.38 212.59, 331.57 222.1, 311.73 223.19 M311.73 223.19 C240.06 225.01, 166.76 226.68, 32 223.19 M32 223.19 C9.1 222.89, 0.05 212.48, 0 191.19 M0 191.19 C-0.18 133.92, 0.55 75.34, 0 32 M0 32 C-1.73 9.76, 10.77 0.28, 32 0" stroke="#1e1e1e" stroke-width="2.5" fill="none" stroke-dasharray="8 10"></path></g><g transform="translate(393.34096386344913 880.4871333465716) rotate(0 93.75 12)"><text x="0" y="19.3125" font-family="Cascadia, Segoe UI Emoji" font-size="20px" fill="#1e1e1e" text-anchor="start" style="white-space: pre;" direction="ltr" dominant-baseline="alphabetic">static resources</text></g><g mask="url(#mask-mtik3-u4cNG2jQA2OiyXy)" stroke-linecap="round"><g transform="translate(203.22699775369597 1390.9914166920043) rotate(0 -1.8073926694955844 -227.09816985652105)"><path d="M0.52 1.08 C-0.33 -74.89, -3.24 -379.3, -3.96 -455.08 M-0.67 0.6 C-1.8 -75.31, -4.43 -377.97, -5.09 -454" stroke="#1e1e1e" stroke-width="2" fill="none"></path></g><g transform="translate(203.22699775369597 1390.9914166920043) rotate(0 -1.8073926694955844 -227.09816985652105)"><path d="M3.66 -430.58 C1.86 -440.35, -4.85 -449.32, -5.09 -454 M3.66 -430.58 C1.03 -438.7, -1.65 -447.14, -5.09 -454" stroke="#1e1e1e" stroke-width="2" fill="none"></path></g><g transform="translate(203.22699775369597 1390.9914166920043) rotate(0 -1.8073926694955844 -227.09816985652105)"><path d="M-13.44 -430.43 C-8.5 -440.33, -8.47 -449.36, -5.09 -454 M-13.44 -430.43 C-10.05 -438.61, -6.72 -447.1, -5.09 -454" stroke="#1e1e1e" stroke-width="2" fill="none"></path></g></g><mask id="mask-mtik3-u4cNG2jQA2OiyXy"><rect x="0" y="0" fill="#fff" width="306.84178309268714" height="1945.1877564050465"></rect><rect x="160.40398008420038" y="1151.8932468354833" fill="#000" width="82.03125" height="24" opacity="1"></rect></mask><g transform="translate(160.40398008420044 1151.8932468354835) rotate(0 40.53476499998479 12.098935776203888)"><text x="41.015625" y="19.3125" font-family="Cascadia, Segoe UI Emoji" font-size="20px" fill="#1e1e1e" text-anchor="middle" style="white-space: pre;" direction="ltr" dominant-baseline="alphabetic">request</text></g><g mask="url(#mask-nqxoDgrJvdZmzuFGcdmJ-)" stroke-linecap="round"><g transform="translate(644.9994503442757 1092.0077153908692) rotate(0 3.4257662271806453 154.70779762201698)"><path d="M-0.48 0.12 C0.48 51.78, 4.86 258.59, 5.9 309.97 M1.47 -0.86 C2.79 50.44, 7.01 256.47, 8.12 308.13" stroke="#1e1e1e" stroke-width="2" fill="none"></path></g><g transform="translate(644.9994503442757 1092.0077153908692) rotate(0 3.4257662271806453 154.70779762201698)"><path d="M-0.92 284.83 C2.11 290.54, 5.64 297.61, 8.12 308.13 M-0.92 284.83 C0.37 290.22, 2.29 295.18, 8.12 308.13" stroke="#1e1e1e" stroke-width="2" fill="none"></path></g><g transform="translate(644.9994503442757 1092.0077153908692) rotate(0 3.4257662271806453 154.70779762201698)"><path d="M16.18 284.47 C13.88 290.23, 12.08 297.4, 8.12 308.13 M16.18 284.47 C13.84 289.82, 12.13 294.86, 8.12 308.13" stroke="#1e1e1e" stroke-width="2" fill="none"></path></g></g><mask id="mask-nqxoDgrJvdZmzuFGcdmJ-"><rect x="0" y="0" fill="#fff" width="751.850982798637" height="1501.4233106349031"></rect><rect x="566.3939665714562" y="1234.7155130128863" fill="#000" width="164.0625" height="24" opacity="1"></rect></mask><g transform="translate(566.3939665714564 1234.715513012886) rotate(0 82.42477242424627 11.847342138220569)"><text x="82.03125" y="19.3125" font-family="Cascadia, Segoe UI Emoji" font-size="20px" fill="#1e1e1e" text-anchor="middle" style="white-space: pre;" direction="ltr" dominant-baseline="alphabetic">async download</text></g><g transform="translate(42.56706375365155 1731.8283734627673) rotate(0 802.734375 60)"><text x="0" y="19.3125" font-family="Cascadia, Segoe UI Emoji" font-size="20px" fill="#1e1e1e" text-anchor="start" style="white-space: pre;" direction="ltr" dominant-baseline="alphabetic">3. Does spliting some many chunks for individual client components affects in performance?</text><text x="0" y="43.3125" font-family="Cascadia, Segoe UI Emoji" font-size="20px" fill="#1e1e1e" text-anchor="start" style="white-space: pre;" direction="ltr" dominant-baseline="alphabetic">   Separation chunks is nothing to do with when they would be loaded. They is able to be loaded initially, or later based on demand.</text><text x="0" y="67.3125" font-family="Cascadia, Segoe UI Emoji" font-size="20px" fill="#1e1e1e" text-anchor="start" style="white-space: pre;" direction="ltr" dominant-baseline="alphabetic">   it just increase the numbers of downloads, but it doesn't matter, because the Multiplex of HTTP2. So it has no effects on performance.</text><text x="0" y="91.3125" font-family="Cascadia, Segoe UI Emoji" font-size="20px" fill="#1e1e1e" text-anchor="start" style="white-space: pre;" direction="ltr" dominant-baseline="alphabetic">   It means like leaveing the combination of javascript resources to HTTP2, in the upper layer, we just keep structure clearity without </text><text x="0" y="115.3125" font-family="Cascadia, Segoe UI Emoji" font-size="20px" fill="#1e1e1e" text-anchor="start" style="white-space: pre;" direction="ltr" dominant-baseline="alphabetic">   considering more about combination for downloading performance. </text></g><g stroke-linecap="round"><g transform="translate(10.832507012775181 591.1254185584854) rotate(0 772.3784486191591 -3.376396702806005)"><path d="M0.41 -1.15 C258.01 -2.43, 1288.27 -5.99, 1545.51 -6.96 M-0.83 0.85 C256.69 -0.3, 1287.11 -4.43, 1544.95 -5.53" stroke="#1e1e1e" stroke-width="1" fill="none"></path></g></g><mask></mask></svg>